<?xml version="1.0" encoding="UTF-8"?>
<svg id="Laag_2" data-name="Laag 2" xmlns="http://www.w3.org/2000/svg" viewBox="0 0 85.57 145.53">
  <defs>
    <style>
      .cls-1 {
        fill: #9c9081;
      }

      .cls-1, .cls-2, .cls-3 {
        stroke-width: 0px;
      }

      .cls-2 {
        fill: #5b4511;
      }

      .cls-3 {
        fill: #548013;
      }
    </style>
  </defs>
  <g id="Laag_1-2" data-name="Laag 1">
    <path class="cls-1" d="M85.57,115.18c-2.76.71-5.67,1.29-8.51.44-1.4-.53-2.59-1.31-3.78-2.11-1.19-.81-2.31-1.69-3.4-2.64l-.18-.51c-.01.2.01.14,0,.17-.44-.45-1.12-.63-1.75-.82-2.03-.44-4.13-.71-6.21-1.02.23.23.44.5.62.81.12.22.18.53.19.79.18.88.97,1.56,1.67,2.27,1.87,1.79,4,3.3,6.09,4.85l-.08.14c-2.39-1.13-4.69-2.46-6.8-4.09-.9-.79-2.2-1.74-2.33-3.16-.08-.3-.35-.5-.73-.76-2.17-1.23-4.79-1.8-7.23-2.38-.79-.27-2.34-.79-4.09-1.39,1.87,1.28,3.6,2.77,4.97,4.6.61.93,1.13,1.91,1.61,2.91,2.2,1.5,4.2,3.23,6.26,4.85,1.34.96,2.84,1.86,4.37,2.48,1.13.5,2.42.48,3.38,1.32.96.87,1.43,1.79,2.55,2.38.98.88,1.06,2.14,1.78,3.11.65.88,1.69,1.51,2.79,1.81l-.03.15c-1.16-.21-2.29-.75-3.13-1.67-.82-.92-1.11-2.23-1.9-2.79-1.08-.43-1.85-1.52-2.68-2.18-.91-.65-2.16-.54-3.18-.95-2.28-.76-4.59-1.8-6.29-3.52-1.14-1.11-2.23-2.25-3.22-3.47.33.74.65,1.49.98,2.22,1.42,2.93,4.37,4.71,6.95,6.52.51.28,1.1.74,1.4,1.29,1.39,2.32,1.8,5.07,2.17,7.7l-.15.02c-.52-2.72-.95-5.73-2.72-7.94-2.94-2.16-6.59-3.81-8.34-7.22-1.06-2.2-2.01-4.46-3.38-6.46-1.7-2.16-3.95-3.8-6.35-5.18-.42.29-.74.61-.98.91.15.34.31.68.46,1.02,1.69,1.21,2.8,2.97,4.18,4.53,1.06,1.04,2.28,2.14,2.89,3.53l-.13.08c-1.29-1.5-3.06-2.57-4.65-3.86.01.02.02.03.03.05,2.84,4,3.84,9.2,6.4,13.42,1.66,2.89,3.2,6.23,2.73,9.66-.22,1.69-.65,3.32-1.32,4.85l-.14-.06c2.39-7.87-1.21-11.14-4.43-17.36-.17.54-.45,1.04-.8,1.5-.53.83-1.49.89-1.96,1.81-.68,1.68-.53,3.8-.39,5.63l-.16.04c-.69-2.39-1.71-5.67.38-7.71.88-.72,1.65-1.42,2.44-2.27-1.34-2.96-2.17-5.95-4.08-8.71-.96-1.67-1.77-3.38-2.5-5.12-.21.07-.46.13-.73.18-.04.68-.12,1.25-.23,1.59.07,1.7.24,3.4.42,5.09.22,1.43.3,3.67.84,4.98l-.11.11c-1.6-3.11-1.86-6.67-2.7-10.04.03-.53.08-1.05.15-1.58h-.33c-.09,2.39-.29,4.76-.85,7.08-.27,2.14-.54,4.52-.61,6.08-.27,2.5.45,4.86.3,7.33-.05,1.28-.16,2.54-.33,3.8-.55,1.07-1.08,2.16-1.59,3.25-.67,1.59-1.57,3.2-1.66,4.94.03,1.75.76,3.43,1.63,4.94l-.13.09c-.98-1.51-1.81-3.2-1.95-5.02.1-2.79,1.94-6.42,2.83-8.38.17-2.4.33-4.84-.21-7.19-.15-1.03-.23-2.03-.25-3.03-.56,1.35-1.19,2.67-1.99,3.9-1.16,1.8-2.64,3.58-3.94,5.27-.37.54-.94,1.15-1,1.79l-.15.05c-.12-.44.07-.79.19-1.14,1.03-2.33,2.54-4.45,3.71-6.67.67-1.25,1.22-2.58,1.74-3.92-1.74,1.18-3.6,2.1-5.54,2.84l-.06-.14c2.12-1.23,4.7-2.51,6.29-4.46.3-.77.61-1.53.95-2.27l.24-.57c.05-.41.09-.82.12-1.03.39-2.74.44-5.56,1-8.26-.2-.21-.46-.45-.73-.65.04-.06.09-.11.13-.17l-.12-.1c-.05.06-.1.11-.15.17-.1-.07-.2-.14-.29-.19-2.97,3.94-5.97,7.83-9.59,11.25-.69.64-1.47,1.28-2.36,1.68.86,1.35,1.03,2.91.81,4.5-.12,1.77-.8,3.71-2.33,4.72l-.1-.13c2.27-2.59.51-5.79.89-8.82-.19.05-.39.09-.6.12-1.01.2-2.06.17-3.02.1-1.18.88-2.4,1.72-3.71,2.44-.63.32-1.05.51-1.17.85-.15.51-.38,1.44-.87,1.87-1.5,1.29-3.35,1.87-5.28,2.31l-.07-.13c1.22-1.41,2.74-2.38,4.28-3.3.17-.13.3-.26.41-.46.12-.21.21-.53.44-.9.48-.8,1.37-.98,1.83-1.16,1.18-.48,2.32-1.03,3.46-1.59-.12,0-.24-.02-.35-.03-2.47-.25-4.98.88-7.49,1.11l-.05-.15c1.17-.6,2.37-1.14,3.59-1.63,2.65-1.51,5.9-.43,8.65-1,3.08-1.43,5.37-4.33,7.8-6.72,1.58-1.65,3.13-3.34,4.63-5.05-.13-.07-.24-.12-.32-.14-.5-.1-2.11.51-2.63-.91-.02-.05-.04-.11-.05-.17-1.74,1.59-3.66,2.98-5.85,3.95-.36.14-.72.27-1.08.39-.19.88-.48,1.72-.84,2.55-.33,1.1-1.16,2.22-2.52,2l-.06-.14c.37-1.15.66-1.73,1.51-2.51.46-.55.9-1.13,1.34-1.72-1.63.53-3.27.9-4.96,1.16-1.38,1.58-2.8,3.1-4.51,4.37-2.02,1.28-4.21,1.88-6.43,2.64-.79-.18-1.73-.26-2.46-.1-.75.13-1.21.65-1.81,1.09-1.38,1.06-2.81,2.08-4.35,2.93l-.1-.12c1.36-1.81,2.8-3.33,4.44-4.84,1.24-.96,2.88-.82,4.25-.39-.06.01-.13.03-.19.04h.38c-.06-.01-.13-.03-.19-.04,2.01-.48,4.21-.97,6.01-1.92,1.63-1,3.14-2.29,4.57-3.6-.7.11-1.4.2-2.12.28l-.17.02c-.4-.22-.85-.43-1.37-.5-1.26-.25-2.55.58-3.64,1.13-1.37.63-2.78,1.28-4.29,1.51-.5.06-1.1.14-1.57-.22l.09-.13c.91.18,1.8-.49,2.59-.89,1.22-.68,2.54-1.55,3.73-2.29,1.42-.94,3.33-1.03,4.81-.14-.08.01-.15.01-.23.01l.45.13c-.07-.05-.14-.09-.22-.14,2.86-.06,5.89-.53,8.62-1.39,2.21-.82,4.27-2.07,6.15-3.53,0,0-1.23-2.49,1.84-2.45,3.06.03,11.62-.14,12.87,0,.78.08,2.35.51,3.3.83l2.01.09c3.56-.09,7.79-.51,10.89,1.89l-.09.13c-3.2-2.22-7.16-1.59-10.82-1.35l-6.34-.02h-.34c-.08.02-.13.02-.13.02.03.26-.02.51-.24.74l4.13,1.21c.59.09,1.38.26,2.22.47,1.67.26,3.32.53,4.71.74,1.29.22,2.62.4,3.94.63,3.08-.48,6.24-.01,9.23.82,1.19.35,2.38.71,3.55,1.12l-.04.15c-2.15-.23-5.14-.9-7.28-.78-.19.02-.38.03-.57.04.47.22.91.49,1.25.91.09.16.15.23.19.36,2.95,2.7,6.26,5.75,10.55,5.37,1.4-.03,2.8-.21,4.17-.51l.04.16Z"/>
    <path class="cls-2" d="M58.94,49.49c-2.16,2.14-4.79,4.78-7.31,7.36-.77,1.89-1.64,3.8-2.57,5.48.15.68-.04,1.19-.04,1.19,0,0-.47,3.1-1.35,3.91-.88.81.81,22.05.88,23.06.06,1.01.54,11.25,1.68,11.25h-13.3s.33-29.74,0-32.99c-.4-4.03-2.61-6.31-2.61-6.31,0,0-.22-.83.34-1.69-5.6-5.14-11.66-7.72-11.72-7.75l.83-1.97c.24.1,4.92,2.1,9.96,6.12-2-2.51-4.48-5.55-6.88-8.4l1.64-1.38c5.05,6.03,7.85,9.58,9.41,11.71.32-.06.68-.11,1.06-.13-1.31-3.42-4.45-9.88-6.67-14.18l1.9-.97c.63,1.21,5.47,10.68,7.03,15.11.21.01.43.02.65.03.48.03.92.07,1.34.12.01-4.09-.08-10.35-.16-14.75l2.13-.05c.08,4.45.18,10.9.15,15.19.71.18,1.29.4,1.76.65.48-.51.98-1.03,1.49-1.55,2.59-5.67,4.46-12.46,4.49-12.57l2.06.56c-.08.3-1.06,3.84-2.59,7.96,2.75-2.79,5.09-5.12,5.7-5.72l.7.71Z"/>
    <path class="cls-3" d="M75.96,47.85c-1.15.2-2.11,1.04-2.38,2.18-.56,2.35-2.46,5.3-8.86-1.02-.02-.02-.05-.05-.07-.07-.01.02-.02.04-.03.05-.69,1.34-5.68.51-5.68.51l-.7-.71s-1.06-.78-1.3-1.73h-.01s-.05-.01-.05-.01c-1,.07-1.75-.5-1.75-.5l-.29-.08c-.99-.27-2.01-.33-3.03-.27-.92.05-2.12-.09-2.8-1.04-.87-1.21-1.81-2-2.27-2.35-.08-.06-.19.02-.16.12.12.48.12,1.31-1.39,1.34l-2.1.05s-.04,0-.06-.02c-.17-.11-1.09-.77-1.28-1.52-.02-.1-.15-.12-.19-.03-.25.48-.7,1.06-1.44,1.06-.32,0-1.61-.42-2.76-.83-.86-.31-1.77,0-2.4.65-.21.22-.46.32-.77.18l-1.86.95s-.05.02-.08,0c-.02,0-.04-.01-.06-.02-1.17-.37-2.4.27-2.73,1.46-.29,1.04-.63,1.78-.97,1.17l-.39.33c-.83.69-1.93.97-2.99.76h0c-.59-.17-1.13.37-1,.96.18.81.2,1.57-.34,1.61-.54,1.28-1.78,2.12-3.16,2.16-.77.02-1.54-.02-1.94-.19-.95-.41-.59,6.45-5.28,3.58-.59-.36-1.29-.49-1.95-.3-2.01.59-6.15,1.35-4.93-2.89.26-.9-.19-1.86-1.03-2.27-1.06-.53-2.12-1.59-1.63-3.73.19-.83-.28-1.7-1.08-2-1.86-.71-4.28-2.52-1.54-6.98.83-1.35.92-3.03.37-4.52-.33-.88-.29-1.86.88-2.53.92-.53,1.3-1.65.84-2.61-1.27-2.68-2.46-7.14,3.56-7.19.92,0,1.65-.8,1.57-1.71-.08-.85.22-1.75,1.61-2.14.75-.21,1.19-.97,1.06-1.73-.55-3.09-.77-9.51,7.77-6.62.93.31,1.88-.3,2.01-1.27.13-1.05.76-1.98,2.73-1.49.91.22,1.81-.35,1.98-1.27.47-2.48,2.01-6.06,7.13-2.51.82.57,1.92.56,2.7-.05.71-.55,1.68-.9,2.68,0,.71.63,1.77.69,2.57.17,1.28-.84,3.1-1.55,4.43-.1.6.65,1.64.65,2.25,0,2.16-2.28,6.44-5.49,9.2,1.04.43,1.01,1.61,1.4,2.61.96.91-.39,1.91-.33,2.38,1.39.27,1.01,1.34,1.59,2.35,1.34,3.18-.77,8.55-1.15,5.48,6.27-.39.94.32,1.99,1.34,1.98,2.16-.02,5,.77,5.09,5.01.03,1.4,1.07,2.58,2.46,2.71,2.27.21,4.65,1.23,1.38,5.15-.73.87-.5,2.2.52,2.71,1.74.88,3.34,2.55.27,5.39-.75.69-.82,1.86-.18,2.65,1.9,2.36,4.28,6.95-4.3,8.41Z"/>
  </g>
</svg>