<?xml version="1.0" encoding="UTF-8"?>
<svg id="Laag_2" data-name="Laag 2" xmlns="http://www.w3.org/2000/svg" viewBox="0 0 45.58 126.74">
  <defs>
    <style>
      .cls-1 {
        fill: #9c9081;
      }

      .cls-1, .cls-2, .cls-3 {
        stroke-width: 0px;
      }

      .cls-2 {
        fill: #5b4511;
      }

      .cls-3 {
        fill: #548013;
      }
    </style>
  </defs>
  <g id="Laag_1-2" data-name="Laag 1">
    <path class="cls-1" d="M43.68,112.12c-1.18-1.16-2.31-2.35-3.39-3.58.27.78.36,1.62.02,2.46-.19.47-.5,1.25-1.18,1.16-.16-.72-.78-1.3-1.02-2.07-.3-.66-.14-1.43-.24-2.18-.09-.82-.19-1.65-.3-2.48-2.62-3.11-5.13-6.29-7.78-9.35-.75-.82-1.58-1.52-2.56-2.05-.39-.25-.91-.56-1.47-.91.16.72.42,1.43.78,2.01.91,1.16,2.04,2.27,2.51,3.7.56,1.22.86,3.06,1.16,4.36.69,3.84,2.23,7.5,2.71,11.37.38-.13.86-.13,1.19.02,1.77.41,2.82,1.76,3.75,3.14,1.27,1.68,2.45,3.4,3.47,5.24l-.19.16c-1.6-1.33-3.14-2.73-4.71-4.03-1.21-.89-2.37-1.76-3.17-3-.09-.16-.27-.31-.19-.42.09-.17.03-.2-.06-.14.02.17.03.36.03.53.36,2.48-1.05,6.73,2.26,7.42l.02.25c-3.61-.41-2.56-5.11-3-7.61-.27-2.93-1.3-5.55-2.27-8.34-.44-1.41-.82-2.82-1.21-4.25-.47-1.91-.97-4.22-2.26-5.74-.33-.28-.63-.58-.88-.91.08,3.04.16,6.34.11,7.43.06,1.8-1.33,3.28-1.77,4.94-.2.72-.22,1.41-.24,2.34-.25,1.44-.56,2.81-1.04,4.19-.45,1.35-1,2.76-2.13,3.92-1.66,1.84-2.6,4.67-3.53,7.04l-.25-.06c.16-1.38.44-2.73.8-4.08.49-2.62,2.64-4.58,3.14-7.39.27-1.02.6-3.25.64-3.73,0-.08-.02-.17,0-.27-.47.19-1.05.27-1.66-.03l-.08-.24c.28-1.52.38-1.93,1.63-2.62.17-.14.33-.27.5-.42.35-.99.91-1.84,1.29-2.81.31-1.08.22-2.21.25-3.43l.13-4.94c-.11.11-.22.2-.35.28-2.74,1.35-4.8,3.06-7.04,5.14-.82,2.65-3.47,8.7-5.76,12.06-1.73,2.2-4.23,3.53-6.56,4.99l-.13-.2c1.54-1.1,3.2-2.2,4.58-3.51-.82.19-1.62.36-2.4.53-.53.09-1.05.42-1.58.27-.53-.16-1.05-.38-1.65-1l-.03-.25c.89-1.29,1.98-1.47,3.26-.99.99.22,1.99.47,2.95.88.35-.35.64-.74.93-1.13,2.29-3.92,3.7-8.31,5.19-12.58,2.05-2.1,4.5-4.39,7.14-5.77.44-.35.75-.82.97-1.33-1.24.72-2.62,1.25-3.86,1.85-3.18,1.1-7.07,3.36-10.46,2.13-1.07-.3-1.62-.27-2.67.27-1.98.97-3.94,2.2-5.9,3.36l-.16-.19c2.49-2.16,5.38-6.12,9.11-5.4,1.19.2,1.98.24,2.85-.08,3.06-1.16,6.31-2.38,9.32-3.75.58-.28,1.16-.55,1.69-.89h6.98c2.59.89,4.99,2.43,7.21,4.05.06.05.14.08.2.11,1.02-.08,1.65.24,2.12.94.58.19,1.18.35,1.79.49l-.06.24c-.5-.03-.99-.11-1.46-.22,0,.02.02.05.03.08.55.86,1.1,1.74,1.54,2.71l-.16.17c-.99-.42-1.88-.94-2.76-1.47-.42-.28-1-.41-1.24-.88-.14-.25-.45-1.08-.33-1.65-1.35-.64-2.64-1.43-3.87-2.13-1.52-.75-3.22-1.27-4.94-1.49.42.22.77.41.93.49,2.87,1.82,5.13,4.52,7.29,7.04,1.51,1.91,2.92,3.89,4.23,5.94.47-.05.94-.08,1.4-.09.39-.02.83-.22,1.15.05.25.2.91.93.74,1.6-.53.56-.97.72-1.38.78-.27.05-.47-.11-.69-.28.78,1.33,1.52,2.71,2.2,4.11l-.2.14Z"/>
    <path class="cls-2" d="M34.85,29.4c.14.11.31.11.36.09-.45.13-1.76,1.47-3.11,3.15-.5,2.45-1.04,4.96-1.57,7.39.55-.52,1.07-.99,1.44-1.21l.8,1.33c-.55.33-1.87,1.68-2.89,2.81-1.38,6.26-2.7,11.67-3.54,13.79v34.63h-2.46v-33.14c-.28-.91-.66-2.09-1.08-3.4-.8-2.49-1.77-5.52-2.65-8.42l-.38-.44.11-.09-.13.02s0,.05.02.08c-.35-.35-2.09-.8-3.76-.99l.16-1.55c1.11.13,2.32.3,3.28.66-.42-1.47-.82-2.87-1.11-4.08-1.44-1.66-3.94-3.81-5.05-3.39l-.56-1.46c1.58-.63,3.59.71,5.05,2.02-.03-.17-.05-.33-.06-.47-.25-3.54-5.13-7.28-5.19-7.32l.96-1.25c.16.13,3.12,2.38,4.75,5.29l.06-.44,1.55.25-.55,3.48c.27,2.87,3.22,12.09,5,17.65.05.16.09.3.14.44,1.43-4.45,3.94-16.14,5.91-25.77l-.25.17c-.38-.56-1.14-1.36-1.6-1.41l.16-1.57c.78.08,1.51.66,2.02,1.21,1.44-7.09,2.51-12.7,2.54-12.85l2.42.45c-.13.61-1.33,6.9-2.89,14.46.83-.83,1.65-1.47,2.24-1.57.3-.05.61.05.83.22l-.97,1.24Z"/>
    <g>
      <path class="cls-3" d="M16.17,43.44c-3.51-3.32-6.82.23-6.82.23,3.07,3.49,6.67,1.32,6.67,1.32l.16-1.55Z"/>
      <path class="cls-3" d="M13.28,36.63s-8.15,2.92-9.72-2.51c0,0,6.62-3.92,9.15,1.05l.56,1.46Z"/>
      <path class="cls-3" d="M12.51,29.4s-10.45.22-8.7-6.35c0,0,3.56-1.16,5.92-.35,0,0-1.29-7.98,1.76-8.49,0,0,8.37,2.27,5.5,12.97,0,0-3.12,2.27-4.48,2.23Z"/>
      <path class="cls-3" d="M18.29,32.99s-.34-4.78,4.24-5.43c0,0,3.03,4.75-2.69,5.68l-1.55-.25Z"/>
      <path class="cls-3" d="M28.5,27.8s-8.35-2.9-7.06-8.1c0,0,5.96-3.4,7.22,6.53l-.16,1.57Z"/>
      <path class="cls-3" d="M32.13,20.17s-12.34-3.78-8.8-14.36c0,0,6.91.93,9.21,12.26l-.41,2.1Z"/>
      <path class="cls-3" d="M33.22,14.59s-4.4-9.36,3.06-14.59c0,0,5.91,5.41-.64,15.05l-2.42-.45Z"/>
      <path class="cls-3" d="M34.54,20.61s1.21-6.96,8.5-5.56c0,0,5.69,4.21-8.84,7.27l.34-1.71Z"/>
      <path class="cls-3" d="M34.99,27.94s.76-7.17,10.59-4.47c0,0-2.87,8.87-10.37,6.02l-.22-1.55Z"/>
      <path class="cls-3" d="M31.98,38.83s1.84-5.04,6.74-3.4c0,0,.5,4.35-5.94,4.74l-.8-1.33Z"/>
    </g>
  </g>
</svg>