<?xml version="1.0" encoding="UTF-8"?>
<svg id="Laag_2" data-name="Laag 2" xmlns="http://www.w3.org/2000/svg" viewBox="0 0 95.88 136.93">
  <defs>
    <style>
      .cls-1 {
        fill: #9c9081;
      }

      .cls-1, .cls-2 {
        stroke-width: 0px;
      }

      .cls-2 {
        fill: #5b4511;
      }
    </style>
  </defs>
  <g id="Laag_1-2" data-name="Laag 1">
    <path class="cls-2" d="M94.65,49.69c-.69-.14-1.4-.27-2.11-.25-.53.02-1.07.04-1.6.09,1.56-.89,2.81-1.6,3.62-2.06l-1.42-2.49-5.95,3.36-.28.15c-.94.52-1.88,1.05-2.84,1.59h-.01c-.11.04-.2.06-.31.09-.54.19-1.07.43-1.6.62-.47.15-.95.3-1.42.39-.17.04-.43-.04-.51-.15-.64-.97-1.28-1.95-1.86-2.96-.44-.75-.52-.83-1.36-.63-.23.06-.46.11-.68.21-1.17.62-2.39.98-3.72,1.1-.84.07-1.11.53-1.16,1.36-.01.28-.18.69-.4.82-.96.57-1.93,1.17-2.97,1.55-1.76.63-3.62.98-5.38,1.63-1.85.69-3.66,1.47-5.47,2.25l3.06-6.53c-1.01-.07-2.1-.47-3.25-1.4l-4.46,9.51c-.11.01-.21.02-.32.02-.38.01-.79.31-1.1.58-.28.25-.44.64-.65.98-.44.71-1.37,1.31-2.38,1.59l.54-16.66c-.13-.06-.26-.12-.39-.18.47-.19.84-.59,1.17-1.08.34-.49.64-1.01,1.05-1.42,1.39-1.44,2.91-2.75,4.67-3.71.97-.54,2.04-.97,3.1-1.27,1.28-.37,2.39.11,3.19,1.16.46.62.84,1.29,1.27,1.94.51.79,1.14,1.53,2.11,1.68,1.76.3,3.53.49,5.29.72.02-.07.06-.14.08-.21-.5-.26-.97-.58-1.49-.76-.78-.26-1.6-.4-2.4-.62-2.63-.7-3.59-2.17-4.17-4.68.64-.09,1.35-.04,1.92-.31,1.52-.7,3.02-1.46,4.44-2.33,1.08-.66,1.18-1.39.66-2.55-.31-.69-.62-1.37-.94-2.05-.12-.27-.12-.46.2-.62,1.13-.54,1.67-1.5,1.86-2.7.31-1.8.04-3.67.82-5.45-.68.13-.94.56-1.05,1.04-.15.68-.25,1.36-.36,2.04-.31,1.99-1.03,3.7-3.06,4.56-1.14-1.42-1.99-3.11-3.55-4.11-.68.7-.21,1.15.23,1.6.15.15.3.32.43.49.96,1.18,1.95,2.35,2.85,3.56.33.46.51,1.07.62,1.63.14.73-.12,1.1-.82,1.37-.84.33-1.73.57-2.56.94-1.13.51-2.26.5-3.41.17-1.66-.46-3.08-.09-4.28,1.14-.21.2-.41.44-.65.59-.66.44-1.28.97-2,1.21-3.07,1.02-6.16,1.94-9.36,2.93-.17-.43-.51-.94-.53-1.44-.05-1.49-.06-3,.06-4.49.18-2.25-.51-4.05-2.25-5.5-1.5-1.24-2.94-2.58-4.41-3.87-1.09-.97-2.19-1.93-3.33-2.93.2-.23.38-.43.57-.64.66-.72,1.31-1.47,1.99-2.19,1.46-1.56,1.88-3.35,1.17-5.37-.63-1.76-.5-3.55-.31-5.38.23-1.99.24-4.01.31-6.03.01-.46-.13-.92-.19-1.4-.17.13-.21.24-.23.36-.33,1.94-.68,3.88-.98,5.84-.4,2.44-1.08,4.84-.19,7.35.33.92.21,1.98-.46,2.82-.7.85-1.44,1.65-2.21,2.51-.98-1.09-2.18-1.69-3.65-1.68.01.06,0,.11.02.13.12.13.24.27.37.38,1.5,1.3,2.61,2.81,2.52,4.93,0,.13.19.31.33.4.81.56,1.71,1.01,2.42,1.67.97.9,1.76,1.97,2.68,2.94.52.54.7,1.2.79,1.92.09.65.21,1.35.49,1.94.94,1.97,1.2,3.98,1.09,6.16-.11,2.07.19,4.17.24,6.27.02,1.22.01,2.46-.23,3.65-.26,1.31-.37,1.26-1.44.62-1.35-.81-2.16-2.08-2.66-3.53-.53-1.52-.99-3.07-1.41-4.63-.4-1.47-1.08-2.75-2.29-3.72-.72-.58-1.23-1.31-1.61-2.17-.17-.39-.39-.78-.66-1.11-.36-.45-.84-.66-1.31-.58.56,1.17,1.16,2.32,1.65,3.52.53,1.33,1.17,2.57,2.08,3.68.88,1.08,1.3,2.37,1.58,3.75.04.19.07.38.11.58-.23-.09-.45-.19-.66-.3-.3-.14-.57-.32-.79-.53-.5-.5-.94-1.08-1.31-1.67-1.07-1.74-2.58-2.32-4.55-1.94-1.5.28-3,.36-4.54.07-1.85-.34-3.73-.5-5.59-.12-.84.17-1.61.09-2.37-.24-1.31-.59-2.62-1.2-3.92-1.81-.21-.09-.4-.22-.69-.4.92-1.36,1.82-2.66,2.72-3.99-.83-.97-1.62-1.95-2.48-2.89-.41-.44-.9-.83-1.4-1.18-.41-.28-.91-.43-1.47-.09.21.17.39.28.54.43.73.73,1.56,1.4,2.19,2.23.77,1.02.62,2.07-.24,3.02-.28.31-.59.58-.88.88-.34.37-.69.75-1.02,1.11,1.29,1.26,2.57,2.36,4.36,2.59.37.06.72.21,1.09.31,1.58.41,1.56,1.81.71,2.69-1.26,1.3-2.75,1.9-4.56,1.31-.9-.28-1.78-.64-2.69-.91-2.56-.77-4.57.28-6.4,1.95-.14.13-.28.32-.31.5-.04.34.02.69.04,1.03.07,0,.13.01.19.02,1.67-1.43,3.59-2.23,5.8-2.13,2.24.09,4.1,1.07,5.86,2.72.2-.27.38-.51.57-.75.77-.92,1.56-1.82,2.32-2.76.85-1.04,1.92-1.63,3.28-1.61,2.77.04,5.53.04,8.24.72,1.91.49,3.54,1.33,4.92,2.79.32.34.68.68,1.03.98,1.58,3.21,4.07,8.46,5.93,12.86.09.51.15,1.03.19,1.55.05.56.08,1.11.13,1.68-.5.53-.76.94-.76.94v.2c-.08-.07-.18-.13-.26-.2-.71,1.61-.63,3.22-.64,4.84.3.43.59.84.86,1.22-.01,3.54-.02,8.16,0,12.49.01.01.01.02,0,.04.01,1.07.02,2.12.04,3.13.01,1.11-.08,2.3-.28,3.53v.04c-1.34,8.67-7.06,19.4-7.46,20.16-1.46.59-2.91,1.17-4.36,1.75h9.45c.07-.06.13-.13.19-.2.43-.52.64-.51,1.15-.07.12.11.25.2.38.27h2.23c.38-.37.89-.38,1.48-.2.2.06.41.13.62.2h4.32c.28-.27.53-.27.84,0h16.19c-.58-.2-1.18-.34-1.81-.46-.92-.18-1.03-.36-.95-1.3.05-.58-.14-.88-.71-1.01-.83-.19-1.65-.4-2.46-.6-2.38-4.84-4.61-16.11-5.07-19.54-.53-3.94.64-9.37,1.28-11.71s3.93-4.37,5.1-7.02c.12-.27.13-.53.05-.78,1.2-.84,2.57-1.8,3.91-2.72,7.72-3.72,18.36-9.53,25.63-13.6.08,0,.17-.01.25-.02,2.7-.36,5.34-1.29,8.17-.73-.25-.64-.7-.94-1.23-1.04ZM68.54,57c-.69.5-2.27,1.59-4.19,2.9-1.46.99-2.78,1.91-3.98,2.72-2.74,1.33-4.95,2.31-6.36,2.81-.5.17-.89.28-1.17.32l.27-.58,1.61-3.45c1.8-1.15,3.64-2.23,5.5-3.28,3.78-2.13,7.85-3.72,11.48-6.16.26-.18.54-.34.83-.49-1.98,3.32-3.23,4.65-3.98,5.2Z"/>
    <path class="cls-1" d="M57.43,125.9c-.89-.88-1.74-1.78-2.56-2.7.2.59.27,1.22.01,1.86-.14.36-.38.95-.89.88-.12-.54-.59-.98-.77-1.56-.23-.5-.11-1.08-.18-1.65-.07-.62-.14-1.24-.23-1.87-1.98-2.34-3.87-4.75-5.87-7.06-.57-.62-1.2-1.15-1.93-1.55-.3-.19-.69-.43-1.11-.69.12.54.32,1.08.59,1.52.69.88,1.54,1.72,1.89,2.8.43.92.65,2.31.88,3.29.52,2.9,1.68,5.66,2.05,8.59.28-.09.65-.09.9.01,1.34.31,2.13,1.33,2.83,2.37.96,1.27,1.85,2.57,2.62,3.96l-.14.12c-1.21-1.01-2.37-2.06-3.55-3.04-.91-.68-1.79-1.33-2.39-2.26-.07-.12-.2-.24-.14-.32.07-.13.02-.15-.05-.11.01.13.02.27.02.4.27,1.87-.79,5.08,1.71,5.6v.19c-2.71-.31-1.92-3.86-2.25-5.74-.2-2.21-.98-4.19-1.72-6.3-.33-1.07-.62-2.13-.91-3.21-.36-1.44-.73-3.19-1.71-4.33-.25-.21-.47-.44-.66-.69.06,2.3.12,4.78.08,5.61.05,1.36-1.01,2.48-1.34,3.73-.15.54-.17,1.07-.18,1.76-.19,1.09-.43,2.12-.78,3.16-.34,1.02-.76,2.08-1.61,2.96-1.26,1.39-1.97,3.53-2.66,5.32l-.19-.05c.12-1.04.33-2.06.6-3.08.37-1.98,1.99-3.46,2.37-5.58.2-.77.45-2.45.49-2.82,0-.06-.01-.13,0-.2-.36.14-.79.2-1.26-.02l-.06-.18c.21-1.15.28-1.46,1.23-1.98.13-.11.25-.2.38-.32.26-.75.69-1.39.97-2.12.24-.82.17-1.67.19-2.59l.09-3.73c-.08.08-.17.15-.26.21-2.07,1.02-3.62,2.31-5.32,3.88-.62,2-2.62,6.57-4.35,9.11-1.3,1.66-3.2,2.66-4.95,3.77l-.09-.15c1.16-.83,2.42-1.66,3.46-2.65-.62.14-1.22.27-1.81.4-.4.07-.79.32-1.2.2s-.79-.28-1.24-.76l-.02-.19c.68-.97,1.49-1.11,2.46-.75.75.17,1.5.36,2.23.66.26-.26.49-.56.7-.85,1.73-2.96,2.8-6.28,3.92-9.5,1.55-1.59,3.4-3.32,5.39-4.36.33-.26.57-.62.73-1.01-.94.54-1.98.95-2.91,1.4-2.4.83-5.34,2.53-7.9,1.61-.81-.22-1.22-.2-2.01.2-1.49.73-2.97,1.66-4.45,2.53l-.12-.14c1.88-1.63,4.06-4.62,6.88-4.07.9.15,1.49.18,2.16-.06,2.31-.88,4.76-1.8,7.04-2.83.36-.17.7-.33,1.03-.53.08-.04.17-.09.25-.14h5.27c.7.25,1.39.54,2.06.9,1.18.62,2.31,1.37,3.39,2.16.05.04.11.06.15.08.77-.06,1.24.18,1.6.71.44.14.89.26,1.35.37l-.05.18c-.38-.02-.75-.08-1.1-.17,0,.01.01.04.02.06.41.65.83,1.31,1.16,2.05l-.12.13c-.75-.32-1.42-.71-2.08-1.11-.32-.21-.76-.31-.94-.66-.11-.19-.34-.82-.25-1.24-1.02-.49-1.99-1.08-2.93-1.61-1.15-.57-2.43-.96-3.73-1.13.32.17.58.31.7.37,2.17,1.37,3.87,3.41,5.51,5.32,1.14,1.44,2.2,2.94,3.2,4.49.36-.04.71-.06,1.05-.07.3-.01.63-.17.86.04.19.15.69.7.56,1.21-.4.43-.73.54-1.04.59-.2.04-.36-.08-.52-.21.59,1.01,1.15,2.05,1.66,3.1l-.15.11Z"/>
  </g>
</svg>