<?xml version="1.0" encoding="UTF-8"?>
<svg id="Laag_2" data-name="Laag 2" xmlns="http://www.w3.org/2000/svg" viewBox="0 0 132.59 174.07">
  <defs>
    <style>
      .cls-1 {
        fill: #e45c00;
      }

      .cls-1, .cls-2, .cls-3, .cls-4 {
        stroke-width: 0px;
      }

      .cls-2 {
        fill: #9c9081;
      }

      .cls-3 {
        fill: #5b4511;
      }

      .cls-4 {
        fill: #548013;
      }
    </style>
  </defs>
  <g id="Laag_1-2" data-name="Laag 1">
    <path class="cls-2" d="M107.14,134.18c4.32,1.11,8.78,1.2,13.15.86v-.16c-5.44.13-11.03-.25-15.91-2.69-1.01-.54-2.1-.89-3.22-1.17,1.36-.02,2.71-.14,4.08-.27,2.88-.16,5.84.18,8.74.17l.02-.15c-2.93-.49-5.78-1.13-8.76-1.27-2.69-.22-5.34-.13-7.92.67-1.32-.32-2.6-.71-3.76-1.37-1.36-.92-2.79-1.95-4.34-2.59-1.86-.89-4.64-1.04-6.68-1.21-.38-.03-.76-.05-1.14-.08h-.08c-.4-.03-.8-.06-1.2-.08-.79-.97-5.62-.42-8.42-.74-.06-.01-.13-.01-.2-.02l-.02-.02h-.75c-.47.01-1.01.04-1.61.09l-.02-.09h-1.09v.21c-1.15.13-2.41.31-3.64.5l-7.73-.07s-1.37.45-1.54,1.25c-.45.04-.91.06-1.38.08-3.38.59-6.03,2.7-8.98,4.23-2.93,1.41-6.39,1.05-9.58,1.26v.16c2.62.02,5.25.04,7.88-.35,3.74-.93,6.87-4.05,10.74-4.52.36,0,.71-.02,1.07-.04-.05.21-.01.43.25.87.23.39-.09.86-.36,1.3-1.35.65-3.77,1.82-3.78,1.82-2.64,1.47-6.52,2.05-7.81,5.24-.02.05-.04.1-.06.15-1.37.94-2.87,1.69-4.43,2.2-2.31.56-7.91,2.62-10.25,2.54-1.2.02-2.35-.46-3.59-.39-2.57.16-4.45,2.29-5.9,4.19l.12.09c.78-.9,1.66-1.72,2.63-2.4s2.04-1.15,3.16-1.09c1.08-.01,2.23.55,3.54.62.72.05,1.44.02,2.14-.08-.5.2-1.01.38-1.54.55-3.39,1.69-5.98,4.63-8.56,7.29l.11.11c2.1-1.6,4.22-3.24,6.46-4.64,2.08-1.24,4.72-1.76,6.11-3.8,2.03-.42,4.09-.7,6.11-1.52,1.15-.48,2.25-1.14,3.21-1.93-.34.84-.67,1.69-.98,2.54-2.66,2.36-4.93,5.06-7.44,7.53-3.34,2.55-6.42,4.47-9.4,7.64l.1.12c2.8-2.21,5.65-4.23,8.81-5.89,2.72-1.8,5.08-4.06,6.98-6.68-.72,2.31-1.48,4.71-2.66,6.76-1.53,2.31-4.12,4.04-5.29,6.66l.14.07c1.55-2.47,4.17-3.82,5.96-6.16,1.67-2.37,2.66-5.45,3.54-7.9.85-1.97,1.68-4,2.48-5.99,1.24-2.58,4.63-3.06,6.96-4.51l3.58-1.87c-.75.74-1.42,1.59-2.13,2.32-.93.93-2.48,1.91-2.81,3.7-.13.86.01,1.57-.07,2.23-.69,3.43-4.06,5.98-6.44,8.37l.1.12c1.16-.9,2.28-1.85,3.37-2.86,1.56-1.54,3.48-3.18,3.87-5.51.12-.8.03-1.57.17-2.16.3-1.31,1.69-2.11,2.66-2.96.89-.72,1.64-1.66,2.39-2.33.09.48-.09.93.34.83.76-.18.58-1.04,2.78-.45,2.21.58,1.81.67,3.24,1.44.75.4,1.35.39,1.87.28-.4.44-.8.89-1.18,1.34-1.34,1.47-2.67,2.96-3.97,4.48h0c-1.43.69-2.81,1.38-4.27,2-.27.09-.51.15-.73.16-.14.01-.39.02-.5.07-1.79.8-2.97,2.4-4.21,3.82l.12.11c1.28-1.01,2.59-2.13,4.05-2.79.16-.07.29-.1.42-.09.41.05.8,0,1.14-.06.55-.09,1.09-.22,1.62-.4-.5.61-.99,1.23-1.48,1.85-5.09,6.07-8.21,14.17-15.54,17.93l.05.15c1.88-.77,3.53-1.99,5.04-3.32,2.62-2.3,4.68-5.11,6.72-7.93-.91,2.54-1.63,5.08-2.11,7.8-.27,1.22-.32,2.59-.57,3.78-.89,1.71-2.53,3.45-4.38,4.1v.16c.92-.1,1.69-.56,2.41-1.06,1.43-1.05,3.01-2.34,3.16-4.23.83-3.98,2.79-7.76,2.49-11.93,1.18-1.6,2.37-3.18,3.7-4.65,2.58-3.03,5.46-5.81,8.03-8.92.56-.73,1.18-1.47,1.77-2.25.36.54.72,1.54,1.04,2.31-.2.96-.46,1.9-.8,2.8-.5,1.48-1.08,2.98-1.78,4.34-.17.48-.34.95-.49,1.43-1.26,1.35-2.34,2.8-3.48,4.26-1.81,2.55-3.29,5.3-4.67,8.07l.14.08c1.61-2.19,3.19-4.44,4.92-6.52.57-.67,1.26-1.27,1.86-1.92-.23.79-.45,1.58-.67,2.38-.91,3.68-1.93,7.55-2.1,11.39-.35.24-.64.41-.94.66-1.02,1.18-2.01,2.47-3.18,3.62l.09.13c1.04-.43,2.01-.97,2.96-1.61.38-.21.77-.49,1.07-.83.09,2.25.53,4.46,1.52,6.59.54,1.25,1.19,2.45,2.02,3.51l.13-.09c-2.01-3.42-2.91-7.43-2.63-11.36.77-6.55,2.96-12.93,4.94-19.2.89-1.77,1.76-4.25,2.32-6.66.29.03.64.1,1,.13.11,3.09.17,6.19.49,9.33.31,4.07,1.33,8.07,1.62,12.11-.17,3.11-.69,6.38-.73,9.5l.15-.02c.11-2.57.59-5.5.85-8.1.08-.9.26-1.86.1-2.76-.1-.71-.2-1.42-.3-2.13.32.92.7,1.82,1.14,2.7.94,2.27,3.09,3.84,4.32,5.9,1.21,2.03,2.01,4.35,2.55,6.67,1.03,2.11,3.15,3.54,5.41,4.01l.03-.15c-2.1-.6-4.02-2.05-4.86-4.1-.24-2.02-1.1-4.85-2.22-6.95-1.12-2.19-3.09-3.64-3.89-6-1.58-3.87-2.5-7.95-3.52-12.02,0,0,0-.01-.01-.02-.07-1.25-.1-2.5-.13-3.75.03.35.06.69.1,1.01.2,1.9.72,3.91,1.69,5.56,1.87,3.31,4.48,6.03,6.68,9.04.55.75,1.04,1.64,1.77,2.26,2,1.95,5.45,2.07,6.96,4.41.93,1.53,1.01,3.57.18,5.2l.13.08c.95-1.64.98-3.78.06-5.49-1.69-2.92-5.88-2.91-7.58-5.8-.02-.04-.05-.08-.08-.12.75.47,1.6.78,2.47.86,1.2.09,2.41-.14,3.45.34,1.5.9,2.63,2.43,3.7,3.83l.14-.08c-1.11-2.18-2.53-5.03-5.27-5.31-2.32-.28-3.96-1.01-5.96-1.82-1.88-2.65-4-5.16-5.45-8.03-.86-1.63-1.15-3.3-1.32-5.11-.22-2.28-.3-4.6-.38-6.92.63-1.4,1.62-3.09,2.57-2.76,1.27.43,2.07,3.3,2.95,2.68.13.15.26.3.4.44-1.61,3.33-2.89,8.81,1.38,10.33,1.25.44,1.87,1.58,2.21,2.79t0-.02c0-.07.15-.03.15-.02-.01-.06-.02-.16-.03-.21-.94-5.51-5.28-1.26-3.31-9.54.12-.89.2-1.79.19-2.71.65.66,1.34,1.28,2.05,1.88h.01c1,.94,2.04,1.95,2.45,2.6.32.67,1.05,1.81.97,2.54-.13,1.08-.26,2.25-.28,3.34.01.83-.09,1.73.45,2.47,1.04,1.31,2.64,1.29,2.91,3,.16.68.19,1.41.19,2.14l.15.02c.29-1.45.49-3.37-.86-4.38-.59-.51-1.24-.9-1.49-1.37-.38-1.23.11-2.66.23-3.93.12-.7.33-1.58.14-2.3.98.91,1.89,1.87,2.68,2.96,2.47,3.09,2.57,7.32,4.84,10.54,1.08,1.61,2.75,3.21,4.82,3.16l-.02-.16c-1.95-.06-3.47-1.66-4.4-3.25-1.47-2.39-1.86-5.24-2.82-7.85.84.74,1.84,1.3,2.91,1.69,2.34.48,3.95,2.18,6.14,3.15.17.08.42.11.61.17,1.82.94,3.12,2.75,4.52,4.26l.13-.09c-1.09-1.67-2.18-3.4-3.73-4.72-.22-.19-.6-.38-.93-.47-.71-.29-1.34-.86-2.02-1.39-.96-.76-1.89-1.65-3.09-2.13-1.71-.4-3.28-.82-4.96-1.51-.32-.69-.69-1.35-1.16-1.98-1.07-1.54-2.35-2.92-3.72-4.24.57.13,1.16.2,1.79.2,1.56-.39,3.19-.74,4.84-.85,2.48-.23,5.14.02,7.32,1.26.53.72,1.27,1.24,2.14,1.62,1.41,1.23,2.75,2.56,3.92,3.99,2.57,2.26,5.48,4.36,8.86,5.12l.04-.16c-3.26-.88-6.03-3.08-8.43-5.37-.85-1.13-1.66-2.12-2.49-2.99,2.81.61,6.2.34,8.38.26v-.16c-2.22-.27-4.43-.62-6.57-1.14-1.54-.53-3-.87-4.48-1.36h-.01c-3.38-2.42-7.17-2.9-12.96-1.82-.66.27-1.27.11-2.03-.09-.86-.22-1.95-.62-3.06-1.05-1.08-.99-2.15-1.98-3.13-3.03.73-1.15-1.33-4.07.69-5.47,1.93-1.33,5.87,0,6.21.12.01.01.02.01.02.01.21.16.39.33.51.47,1.4,2.39,4.3,3.57,6.51,5.03l.11-.11c-1.66-1.6-3.78-3.01-5.09-4.84-.15-.24-.1-.24-.24-.57.72-.06,1.34-.24,1.14-.65-.12-.24-.17-.51-.17-.79,1.85.7,3.49,2.15,5.26,2.79.68.96,1.19,1.88,1.53,2.92.3.68.86,1.02,1.37,1.38,3.1,1.67,6.44,2.71,9.78,3.6l.05-.15c-3.24-1.59-6.88-2.85-9.57-5.3-.12-.1-.12-.16-.16-.19-.06-.03-.07-.1-.1-.16-.26-.61-.62-1.15-1.06-1.6,1.67.4,3.33.67,4.97.98,2.13.39,4.04,1.61,6.15,2.16ZM68.5,124.7s0-.03.01-.05l.1-.05s-.07.07-.11.1ZM81.84,139.12l.04-.05h0s.1.07.14.11c.01,0,.01.02.02.02-.07-.02-.13-.05-.2-.07h0Z"/>
    <path class="cls-3" d="M84.27,87.23c-1.13.78-2.29,1.59-3.3,2.3.07.21.06.43-.04.66-.99,2.24-3.77,3.95-4.31,5.93-.54,1.98-1.53,6.56-1.08,9.89.45,3.32,2.85,15.32,5.17,17.9h-23.33s6.66-12.24,6.56-20.06c-.05-4.33-.04-9.48-.03-13.22-.26-.37-.54-.77-.84-1.19-2.67-1.89-6.19-4.59-9.63-7.29-7.78-3.73-16.96-6.82-18.36-7.29.33-.07.66-.13.99-.17,1.32-.17,2.46-.46,3.46-.85,1.82.66,4.15,1.51,6.66,2.52-2.04-1.65-3.65-2.97-4.47-3.65.74-.49,1.36-1.04,1.87-1.59,1.89,1.54,6.48,5.29,11.24,9.04.85.41,1.68.83,2.48,1.26-2.83-3.92-5.83-8.04-8.27-11.37l.16-.11c1.36,1.03,2.72,1.54,4,1.7,4.14,5.65,7.21,9.88,9.48,13.05.45.33.87.66,1.26.99v-.17s.43-.67,1.25-1.36c-1.72-4.41-4.83-10.9-6.33-13.91.56-.34,1.08-.7,1.55-1.08l1-.5c.22.44,4.19,8.41,6.44,14.11.49-.11,1.01-.17,1.58-.14.11.01.21.01.31.03l.46-14.28.77.03c.73.67,1.47,1.12,2.18,1.42l-.47,14.41c.75.83,1.16,1.75,1.33,2.18l6.21-13.23c.97.78,1.89,1.12,2.74,1.18l-6.06,12.93-.23.49c.24-.03.57-.13.99-.27,1.19-.42,3.06-1.25,5.37-2.37,1.01-.69,2.13-1.46,3.36-2.3,1.62-1.11,2.96-2.03,3.54-2.45.69-.5,1.9-1.82,3.86-5.25.84.23,1.65.31,2.42.26l.15.09-.12.23c-.86,1.53-1.64,2.81-2.37,3.84,3.8-2.03,7.81-4.23,11.58-6.34l.24-.13,5.02-2.84,1.2,2.1c-3.75,2.14-18.24,10.35-27.64,14.87Z"/>
    <path class="cls-4" d="M128.97,64.94s-.14,3.2-1.4,3.44c0,0-.63,7.17-7.55,2.31,0,0-2.92,3.88-8.11,1.67l-1.2-2.1-5.02,2.84-.24.13s-.44.16-2.33-1.1c0,0-2.86,3.13-6.91,3.28-.77.05-1.58-.03-2.42-.26-1.81-.48-3.77-1.65-5.77-3.92,0,0-2.07,3.34-5.06,3.14-.85-.06-1.77-.4-2.74-1.18-.83-.66-1.68-1.65-2.56-3.04,0,0-2.08.72-4.51-.32-.71-.3-1.45-.75-2.18-1.42-.68-.61-1.34-1.41-1.96-2.44,0,0-1.55,4.59-5.8.41,0,0-1.06,1.42-2.8,2.78-.47.38-.99.74-1.55,1.08-1.6.96-3.55,1.65-5.66,1.4-1.28-.16-2.64-.67-4-1.7-1.08-.8-2.16-1.92-3.24-3.43,0,0-.34,2.39-2.37,4.61-.51.55-1.13,1.1-1.87,1.59-.63.42-1.36.81-2.19,1.13-1,.39-2.14.68-3.46.85-.33.04-.66.1-.99.17-.39.08-.78.19-1.16.3-.88.26-2.2.48-3.18-.07-.79-.44-1.74-.26-2.46.29-.68.53-1.74.76-3.36.05,0,0-7.23,6.41-7.37-2.94,0,0-3.5,1.17-3.33-1.62,0,0-4.58,4.14-4.76-1.35,0,0-7.15,3.78-5.48-3.59,0,0-3.78.63-1.62-3.51,0,0-4.84-1.35-.67-5.39,0,0-1.03-4.3,1.85-4.79.93-.15,1.68-.85,1.75-1.79.16-2.25,1.14-5.76,5.54-6.18,1.02-.1,1.81-.92,1.88-1.94.13-1.81.51-4.29,1.69-4.67,0,0-4.65-3.98,1.08-5.8,0,0-2.42-4.72,2.83-3.91,0,0,1.05-3.54,2.71-4.34.83-.41,1.42-1.2,1.53-2.12.16-1.43.86-2.88,3.18-2.17,0,0,.94-5.73,6.88-5.39,0,0,.06-2.16,3.1-2.43,0,0,3.1-4.58,7.14-1.48,0,0-.15-6.39,3.81-4.92,1.27.47,2.7.07,3.45-1.06,1.94-2.92,5.77-6.87,9.87-1.03,0,0,4.18-2.3,5.26-.54,0,0,7.68-4.52,10.92,0,0,0,4.24,1.88,3.37,4.31,0,0,5.8.54,5.66,2.97,0,0,15.42-1.89,15.6,3.59,0,0,4.85-1.61,4.85,2.16,0,0,10.7,1.62,9.53,5.93,0,0,6.02,2.25,2.34,5.76,0,0,6.2,4.76,3.41,8.8,0,0,3.87,1.53,2.16,4.32,0,0,5.93,1.53,3.77,5.21,0,0,3.42,1.86,1.26,5.29,0,0,6.13,3.61.86,6.4,0,0,8.14,4.94,0,7.73Z"/>
    <g>
      <path class="cls-1" d="M33.29,65.43c0,2.55-2.28,4.63-5.08,4.63s-4.96-1.98-5.07-4.44c2.43-.41,5.06-1.15,4.53-2.4,0,0,2.48.66,3.5,0,0,0,.56-.15,1.24-.4.55.74.88,1.64.88,2.61Z"/>
      <g>
        <path class="cls-1" d="M62.32,57.61c0,2.55-2.27,4.63-5.08,4.63s-5.08-2.08-5.08-4.63c0-1.24.53-2.36,1.4-3.19,1.22.21,2.83.36,3.15-.32.24-.5,1.33-.67,2.36-.81h.01c1.9.67,3.24,2.35,3.24,4.32Z"/>
        <path class="cls-1" d="M48.12,55c0,2.56-2.28,4.63-5.08,4.63s-5.08-2.07-5.08-4.63c0-1.03.37-1.99,1-2.75.36.06.77.05,1.23-.04,1.97-.4,2.85-1.84,2.85-1.84,0,0,2.63.8,2.97.96.03.01.08.02.14.02,1.2.84,1.97,2.16,1.97,3.65Z"/>
        <path class="cls-1" d="M90.9,64.26c0,2.55-2.27,4.63-5.07,4.63s-5.08-2.08-5.08-4.63c0-.21.01-.41.05-.61,2.27.21,5.88.17,5.79-2.22,0,0,2.11.81,4,1.26.2.49.31,1.02.31,1.57Z"/>
        <path class="cls-1" d="M111.22,61.43c0,2.55-2.27,4.63-5.08,4.63s-4.89-1.91-5.06-4.32c1.67-.5,3.47-1.44,2.9-3.15,0,0,2.5,1.87,4.45,0,0,0,1.08.44,2.25.77.35.62.54,1.32.54,2.07Z"/>
        <path class="cls-1" d="M129.2,54.55c0,2.56-2.28,4.63-5.08,4.63-2.29,0-4.22-1.37-4.85-3.26,1.65-.92,3.8-2.72,4.59-5.99.09-.01.17-.01.26-.01,2.8,0,5.08,2.07,5.08,4.63Z"/>
        <path class="cls-1" d="M114.99,48.35c0,2.51-2.2,4.56-4.94,4.63-1.34-2.97-3.33-4.11-5.2-4.43-.01-.06-.01-.13-.01-.2,0-2.56,2.27-4.63,5.08-4.63s5.07,2.07,5.07,4.63Z"/>
        <path class="cls-1" d="M110.66,34.22c-.49,2.09-2.53,3.66-4.97,3.66-2.73,0-4.96-1.97-5.07-4.43.78.74,1.54,1.25,1.88.79,0,0,4.38.91,4.58-1.58,0,0,1.85.91,3.58,1.56Z"/>
        <path class="cls-1" d="M94.77,36.75c0,2.56-2.27,4.63-5.08,4.63s-5.08-2.07-5.08-4.63c0-.8.23-1.56.62-2.21,1.35.89,3.52,2.02,4.46.92,0,0,2.88.23,4.87-.01.14.41.21.85.21,1.3Z"/>
        <path class="cls-1" d="M84.07,48.35c0,2.55-2.27,4.63-5.08,4.63s-5.07-2.08-5.07-4.63c0-.86.26-1.66.7-2.35.88-.31,1.82-.93,2.73-2.03.51-.16,1.07-.25,1.64-.25,2.81,0,5.08,2.07,5.08,4.63Z"/>
        <path class="cls-1" d="M67.4,42.51c0,2.55-2.28,4.62-5.08,4.62s-5.08-2.07-5.08-4.62c0-.15.01-.3.03-.45.97-.01,2.04-.36,2.89-1.44,0,0,2.41-1.29,4.1-2.39,1.84.69,3.14,2.35,3.14,4.28Z"/>
        <path class="cls-1" d="M62.6,23.82c-1.62.69-2.03,3-2.03,3-2.54-.35-3.44,1.21-3.73,2.72-2.4-.37-4.23-2.27-4.23-4.56,0-2.56,2.28-4.63,5.08-4.63,2.37,0,4.35,1.47,4.91,3.47Z"/>
        <path class="cls-1" d="M80.28,33.38c-.79,1.59-2.56,2.7-4.61,2.7-2.81,0-5.08-2.07-5.08-4.63,0-1.15.46-2.2,1.22-3.01,1.05,1.05,2.42,1.94,3.97,1.8,0,0,2.45,2.26,4.5,3.14Z"/>
        <path class="cls-1" d="M80.25,11.76c0,1.11-.43,2.12-1.13,2.91-1.68-.73-3.45-.88-3.45-.88-1.2-.39-2.68.52-3.81,1.48-1.08-.85-1.76-2.11-1.76-3.51,0-2.55,2.27-4.63,5.07-4.63s5.08,2.08,5.08,4.63Z"/>
        <path class="cls-1" d="M44.43,34.24c0,.53-.1,1.04-.29,1.52-1.29.66-2.04,2.24-2.12,2.4h0s-.01.01-.01.01c-3.3-2.81-5.55-2.43-6.94-1.46-.5-.72-.79-1.57-.79-2.47,0-2.56,2.27-4.63,5.07-4.63s5.08,2.07,5.08,4.63Z"/>
        <path class="cls-1" d="M46.01,19.4c-4.25-1.59-4.05,2.88-4.05,2.88-1.48-.02-2.13.78-2.41,1.57-2.14-.54-3.7-2.33-3.7-4.45,0-2.55,2.27-4.63,5.08-4.63s5.08,2.08,5.08,4.63Z"/>
        <path class="cls-1" d="M12.94,57.28c-1.57,1.4-1.57,4.38-1.57,4.38-.8.05-1.31.59-1.63,1.3-.52.17-1.08.26-1.67.26-2.8,0-5.08-2.07-5.08-4.63s2.28-4.62,5.08-4.62c2.31,0,4.26,1.4,4.87,3.31Z"/>
        <path class="cls-1" d="M28.21,43.49c0,.33-.04.65-.11.95-1.3-.02-2.14.89-2.66,1.94-.41.81-1.54.84-2.04.08-.94-1.42-2.07-2.07-2.07-2.07-1.24-.42-2.27-.1-3.06.46-.14-.43-.22-.89-.22-1.36,0-2.55,2.27-4.63,5.08-4.63s5.08,2.08,5.08,4.63Z"/>
        <path class="cls-1" d="M99.48,22.29c-2.32-.05-4.13,3.09-4.13,3.09-1.84-.15-3.28.85-4.16,1.94-.93-.84-1.5-2.01-1.5-3.29,0-2.55,2.27-4.63,5.08-4.63,2.13,0,3.95,1.2,4.71,2.89Z"/>
      </g>
    </g>
  </g>
</svg>