<?xml version="1.0" encoding="UTF-8"?>
<svg id="Laag_2" data-name="Laag 2" xmlns="http://www.w3.org/2000/svg" viewBox="0 0 59.61 138.61">
  <defs>
    <style>
      .cls-1 {
        fill: #9c9081;
      }

      .cls-1, .cls-2, .cls-3 {
        stroke-width: 0px;
      }

      .cls-2 {
        fill: #5b4511;
      }

      .cls-3 {
        fill: #548013;
      }
    </style>
  </defs>
  <g id="Laag_1-2" data-name="Laag 1">
    <path class="cls-1" d="M47.21,102.99c.88-.1,1.28-.24,2.08-.15,1.35.13,2.76.47,4.1.86l-.11-.1.2.13s-.06-.01-.09-.03l2.66,2.29c.92.87,2.34,1.03,3.55,1.03v-.2c-.58-.08-1.17-.21-1.71-.42-.57-.21-1.01-.44-1.4-.93l-2.44-2.63c-1.41-.7-2.96-1.13-4.56-1.49-1.41-.3-2.82.18-4.1-.54-2.25-1.25-4.74-2.14-7.33-2.52-.14-.11-.28-.23-.42-.33.5-.45.43-.99.31-1.56h-9.3c-1.04.14-2.03.5-3,.82-3.12,1.06-6.02,2.61-8.81,4.29-3.25,1.01-6.87,1.09-10.25,1.6v.19c2.37.11,4.73.21,7.1.13-3.79,2.29-10.37,6.44-13.71,8.66l.1.18,15-7.83c.99-.52,1.99-1.01,3-1.5.14,0,.29,0,.42.03.03-.06.05-.1.05-.11.03.03.05.1.09.15.1.03.13.09.04.04-.01-.01-.03-.01-.04-.04-.04-.01-.09-.03-.14-.04-.13.25-.47.84-.82,1.31-.88,1.21-1.9,2.44-2.78,3.84l.13.15c1.93-.84,3.69-2.05,4.97-3.76.72-1.07.69-2.01.24-2.62.81-.4,1.6-.82,2.37-1.27l3.62-2.13c.53-.29,1.2-.72,1.86-1.09-.11.33-.15.73-.05,1.11h0c-2.15,2.33-4.17,4.73-6.12,7.21l.08.49c.24,1.96.67,4.54-.1,6.44-1.33.65-2.57,1.17-3.94,1.62-3.39.45-6.41,1.84-8.84,4.27l.13.15c2.14-1.23,4.59-2.4,7.05-2.5.35.06.7.09,1.07.09-3.39,2.62-5.94,6.61-8.26,9.99l.15.11c3.28-3.51,6.49-7.45,10.67-9.83.01,0,.04-.01.05-.01.31-.08.6-.18.88-.3,3.78-1.55,3.8-6.31,3.18-9.97,1.2-1.56,2.39-3.11,3.62-4.63.57-.68,1.16-1.41,1.76-2.11.25-.03.48-.08.6-.04.38.11,1.51,1.35,1.51,1.85,0,.13.28.19.68.2.03,3.05-1.77,6.13-3.06,8.78-.04.14-.09.26-.13.4-1.75,2.37-3.94,4.58-6.05,6.71l.13.15c1.6-1.18,3.4-2.44,4.95-3.8-.5,1.69-.88,3.41-.89,5.21.04.35.03.69.3,1.23-.53.21-.99.48-1.45.78-.42.29-.86.86-.99,1.36-.67,2.32-.31,4.77.35,6.92l.19-.04c.06-1.69.19-3.47.7-5.05.48-1.3,1.49-2.05,2.08-3.25.03.03.04.03.05.03.81.28,1.47,1.12,2,1.99-.11,3.93.87,8.03-.11,11.87-.37,1.27-.97,2.52-1.72,3.64l.15.14c4.39-4.18,3.22-10.66,3.6-16.14-.68-1.3-1.55-2.68-3.08-3.32v.08s-.08-.1-.14-.13c0-.01-.01-.01-.03-.03.06.01.11.04.16.08-.13-1.95.72-4.85,1.26-6.86.65,2.34,1.25,4.68,2.4,6.91l.19-.03c.28-1.72.19-3.41-.06-5.08-.16-.92-.69-3.28-1.67-4.24,1.11-2.45,2.28-5.03,2.34-7.69,1.84,2.2,3.81,4.38,5.05,6.93.21.79.24,1.61.19,2.44-.62.34-1.2.78-1.74,1.32-.64.64-.86,1.74-1.02,2.62-.15.86-.43,1.71-.29,2.58.19.93.38,1.86,1.16,2.54l.18-.1c.29-.83.54-1.64.64-2.44.15-1.2-.23-2.45-.13-3.66.05-.86.57-1.59,1.15-2.25-.14,1.4-.47,2.82-.57,4.18-.39,3.91,2.37,7.3,4.74,10.07l.14-.14c-1.57-1.9-2.98-4-3.83-6.31-.77-1.83-.39-3.69,0-5.63.19.76.58,1.46.93,2.14.65,1.08,1.33,2.16,2.27,3.01,2.27,1.33,4.59,2.67,6.63,4.32,1.52,1.32,1.47,3.57,1.13,5.45l.19.06c.63-1.71.94-3.78.04-5.49-1.02-1.55-2.66-2.64-4.03-3.83-.91-.73-1.77-1.47-2.73-2.14-1.01-1.17-2.28-2.39-3.34-3.55-.31-.37-.65-.72-.87-1.13.03-.14.05-.29.08-.43.2-1.23.39-2.57.04-3.91-.34-1.31-1.22-2.32-1.95-3.4-.99-1.4-2.1-2.87-3.22-4.34.13-.09.23-.19.26-.29.23-.63.67-1.46,1.51-2.04.42.23.81.49,1.17.79,1.56,1.51,3.05,3.64,4.32,5.45.52.54,1.01,1.11,1.47,1.7-.1.64-.34,1.18-.48,1.84-.23.81-.15,1.72-.21,2.64-.05.98-.23,2.06.25,3,.53.96,1.35,1.55,2.23,1.89l.09-.18c-.67-.57-1.25-1.31-1.38-2.05-.19-.79.16-1.59.37-2.38.24-.86.67-1.71.63-2.69.62.94,1.18,1.91,1.72,2.91,1.8,2.11,4.58,3.49,6.85,4.52,2.08,1.5,4.09,3.79,3.95,6.51l.2.03c.21-2.11-.92-4.08-2.32-5.58-.49-.5-1.01-.98-1.57-1.41-2.3-1.18-4.82-2.55-6.42-4.58-1.09-2.34-2.91-5.16-4.42-6.75-.1-.15-.2-.31-.3-.47,2.15,1.03,4.73,1.59,6.57,2.89l.09.18c.16-.13.09-.25.06-.33-.53-.89-1.51-1.42-2.33-2.04-2.5-1.41-4.42-3.25-6.97-4.41-.01-.04-.05-.08-.09-.11.93.52,1.86,1.01,2.77,1.52,1.31.81,3.01,1.55,4.64,1.35ZM17.26,102.97c.03-.06.05-.1.05-.11.03.03.05.1.09.15-.04-.01-.09-.03-.14-.04Z"/>
    <path class="cls-2" d="M46.35,38.92l-.19,1.25c-1.57-.24-3.61.58-4.87,1.18-.84,1.2-1.8,2.55-2.91,4.08-2.49,3.46-4.74,6.49-5.45,7.45v43.53h-2.33v-42.29c-2.25-3.93-4.95-7.89-5.76-8.06-1.64.39-4.88-.6-5.25-.72l.38-1.21c.91.29,3.49.97,4.66.69.58-.14,1.37.43,2.25,1.41-4.8-6.67-6.58-7.07-7.04-7.04l-.13-1.26c.72-.08,2.88-.28,9.59,9.58.65.97,1.25,1.88,1.72,2.62-.48-10.94-1.42-22.04-2.3-23.04l.62-1.08c1.59.72,2.47,12.8,2.93,23.83,1.06-1.42,2.58-3.51,4.22-5.78.33-.45.64-.89.93-1.32,1.12-3.4,3.46-10.85,4.14-15.13l1.23.2c-.49,3.15-1.82,7.85-2.96,11.53,4.25-6.1,5.14-7.88,5.31-8.38l2.2.76c-.16.47-.58,1.69-4.74,7.73,1.18-.42,2.54-.7,3.74-.53Z"/>
    <g>
      <path class="cls-3" d="M19.59,45.35s-4.39,1.22-6.13-2.09c0,0,4.91-4.35,6.51.88l-.38,1.21Z"/>
      <path class="cls-3" d="M19.85,39.21s-2.73,1.59-4.09,0c0,0-2.33,3.5-4.16,0,0,0-2.14,3.3-3.93.49-.37-.58-1.03-.91-1.72-.96-2.12-.14-5.98-.83-3.58-4.22.42-.59.31-1.4-.22-1.9-.86-.82-1.46-2.18,1.39-3.61,0,0-5.6-6.11,3.82-5.94,0,0,1.41-2.2,3.5-.93.95.58,2.2.5,2.91-.35.39-.47.48-.99-.31-1.43-1.95-1.1-1.48-3.52,0-3.48,0,0-5.13-4.54.59-6.96,0,0-.85-3.9,3.99-4.07,0,0-1-8.86,4.92-4.48.47.35,1.13.24,1.46-.25.73-1.07,2.21-2.23,4.31,1,0,0,4.45-5.3,6.19,2.29,0,0,5.18,0,1.87,4.07,0,0,5.01-1.44,6.87,5.85,0,0,3.86-4.41,4.67.85,0,0,6.32-1.74,2.72,3.31,0,0,4.54,3.27.76,3.82,0,0,5.09,5.85-1.44,5.09,0,0,2.67,5.09-3.02,4.33l-2.2-.76s-2.5-1.41-2.35-3.15l-1.23-.2s-2.27.41-3.07-.73c0,0-3.31,1.91-3.14-2.04,0,0-3.73,3.73-5.35.17l-1.28,2.08s-2.33,2.03-3.3.46c0,0,2.76,4.62-2.12,3.99,0,0,2.88,4.71-3.71,4.24l.25,3.41Z"/>
      <path class="cls-3" d="M44.7,38.94s1.56-4.92,6.69-2.29c0,0,.7,2.89-5.23,3.52l-1.46-1.23Z"/>
    </g>
  </g>
</svg>