<?xml version="1.0" encoding="UTF-8"?>
<svg id="Laag_2" data-name="Laag 2" xmlns="http://www.w3.org/2000/svg" viewBox="0 0 62.54 117.42">
  <defs>
    <style>
      .cls-1 {
        fill: #548313;
      }

      .cls-1, .cls-2, .cls-3 {
        stroke-width: 0px;
      }

      .cls-2 {
        fill: #9c9081;
      }

      .cls-3 {
        fill: #5b4511;
      }
    </style>
  </defs>
  <g id="Laag_1-2" data-name="Laag 1">
    <path class="cls-2" d="M38.14,93.55c-1.81,5.33-3.46,9.27,2.43,12.16,2.19,1.46,4.49,2.51,6.92,3.89,1.38.65,2.22,2.27,1.97,3.81-.11,1.41-.46,2.7-.89,4l-.41-.14c.32-1.78.76-3.92,0-5.57-2.27-2-5.92-2.49-8.65-4.16-2.57-1.16-5.68-3.3-5.81-6.54-.49-4.65,1.7-8.41,1.92-12.62-4.87,4.49-10.38,14.43-17.03,8.22l.24-.32c2.27.87,4.7.7,6.11-1.35,1.92-2.32,3.92-5.68,6.27-8.3h8.43c0,.49-.05,1-.11,1.51,1.95,2,3.19,4.41,4.7,6.6,3.73,1.65,5.68,5.79,7.22,9.38l-.38.22c-2.46-2.59-4.7-5.81-8.3-6.54-2.24-1.16-3.7-2.7-4.57-4.49l-.08.24Z"/>
    <path class="cls-3" d="M44.81,27.73c-1.32.62-3.57,5.43-5.54,14.89-.27,1.3-.41,2.62-.41,3.95v40.03h-2.7v-29.11c0-2-8.11-10.6-15.6-17.41l1.81-2c2.73,2.49,9.87,9.11,13.79,14.25v-5.76c0-.87.05-1.76.16-2.62l-.16.03c-.78-6.68-1.87-14.19-2.32-15.16l2.35-1.35c.51.89,1.19,4.97,1.76,9.08,1.76-6.54,3.7-10.33,5.76-11.27l1.11,2.46Z"/>
    <g>
      <path class="cls-1" d="M22.38,38.09l-1.81,2S.91,40.7,0,16.4c0,0,23.07-.85,22.38,21.69Z"/>
      <path class="cls-1" d="M36.19,27.46l-2.35,1.35s-12.94-7.68-5.65-21.28c0,0,14.49,7.73,8,19.93Z"/>
      <path class="cls-1" d="M43.7,25.27S40.82,1.4,58.44,0c0,0,15.46,10.64-13.62,27.73l-1.11-2.46Z"/>
    </g>
  </g>
</svg>