<?xml version="1.0" encoding="UTF-8"?>
<svg id="Laag_2" data-name="Laag 2" xmlns="http://www.w3.org/2000/svg" viewBox="0 0 129.65 152.62">
  <defs>
    <style>
      .cls-1 {
        fill: #9c9081;
      }

      .cls-1, .cls-2, .cls-3 {
        stroke-width: 0px;
      }

      .cls-2 {
        fill: #546813;
      }

      .cls-3 {
        fill: #5b4511;
      }
    </style>
  </defs>
  <g id="Laag_1-2" data-name="Laag 1">
    <path class="cls-3" d="M86.06,72.52c-1.13.78-2.29,1.59-3.3,2.3.07.21.06.43-.04.66-.99,2.24-3.77,3.95-4.31,5.93-.54,1.98-1.53,6.56-1.08,9.89.45,3.32,2.85,15.32,5.17,17.9h-23.33s6.66-12.24,6.56-20.06c-.05-4.33-.04-9.48-.03-13.22-.26-.37-.54-.77-.84-1.19-2.67-1.89-6.19-4.59-9.63-7.29-2.92-1.4-6.03-2.71-8.86-3.82,1.27-1.54,3.18-.83,3.69-3.42,1.95,1.58,4.24,3.41,6.56,5.25.85.41,1.68.83,2.48,1.26-2.05-2.85-4.2-5.8-6.15-8.47.93.21,2.01.32,3.12.17,3.6,4.92,6.33,8.68,8.4,11.57.45.33.87.66,1.26.99v-.17s.43-.67,1.25-1.36c-1.48-3.79-3.99-9.12-5.61-12.45.87-.02,1.99-.05,3.28-.08,1.41,2.94,3.55,7.51,4.99,11.15.49-.11,1.01-.17,1.58-.14.11,0,.21,0,.31.03l.25-7.9c1.09.52,2.15.92,2.97.98l-.28,8.5c.75.83,1.16,1.75,1.33,2.18l4.12-8.78c.93.45,1.92.84,2.82,1.03l-4.05,8.63-.23.49c.24-.03.57-.13.99-.27,1.19-.42,3.06-1.25,5.37-2.37.83-.57,1.74-1.19,2.72-1.86.92,1.08,2.13,1.79,3.64,1.38-1.8.93-3.53,1.8-5.12,2.56Z"/>
    <path class="cls-2" d="M125.13,70.72c-.08,1.89-5.7,2.14-8.37,2.15-.77,0-1.49.38-1.91,1.02-1.2,1.82-2.86,1.36-4.06.64-.87-.53-1.97-.47-2.74.19-2.74,2.32-6.04.13-7.37-.95-.38-.31-.86-.45-1.35-.47-2.33-.09-5.95-2.04-7.46-2.91-.4-.23-.86-.34-1.32-.3-1.22.09-2.22-.56-3.01-1.49-.81-.94-1.4-2.16-1.79-3.14-.33-.83-1.13-1.34-2.03-1.36-.31,0-.64-.05-.97-.12-.9-.19-1.89-.58-2.82-1.03-1.21-.57-2.33-1.24-3.06-1.71-.45-.29-.99-.32-1.52-.22-.18.04-.38.04-.6.03-.82-.06-1.88-.46-2.97-.98-1.81-.87-3.7-2.11-4.63-2.76-.4-.28-.88-.41-1.37-.4-.39,0-.76.01-1.12.02-1.29.03-2.41.06-3.28.08-.61.02-1.11.03-1.46.04-.41.01-.8.16-1.14.39-.87.56-1.79.87-2.69.99-1.11.15-2.19.04-3.12-.17-.02,0-.03,0-.05-.01-1.33-.29-2.6.58-2.83,1.91,0,.02,0,.04-.01.06-.51,2.59-2.42,1.88-3.69,3.42-.8.98-2.02,1.14-3.04,1.05-1.07-.1-2.05.61-2.4,1.63-2.16,6.33-6.57,4.93-8.9,3.64-.88-.49-1.94-.29-2.67.4-1.91,1.79-4.12,1.61-5.67,1.13-.97-.3-2.08-.02-2.64.82-1.27,1.9-3.56.62-4.58-.1-.32-.22-.68-.38-1.06-.41-1.98-.18-2.56-1.38-2.62-2.58s-1.02-2.08-2.16-2.11c-1.67-.04-2.19-1.09-2.26-2.19-.09-1.31-1.17-2.34-2.48-2.22-9.16.81-5.4-4.63-3.43-6.94.54-.63.69-1.49.44-2.28-1.02-3.11-.4-4.78.83-5.64.65-.46.95-1.27.87-2.05-.27-2.71-.43-8.27,2.32-10.69.58-.51.8-1.32.68-2.09-.48-3.12-1.03-10.31,3.85-11.6.62-.16,1.16-.54,1.47-1.09.62-1.1,1.84-2.9,3.49-3.65.42-.19.77-.49,1-.89,1.63-2.79,3.77-3.55,5.03-3.76.69-.11,1.27-.53,1.63-1.12,2.02-3.26,4.65-2.68,6.25-1.87.82.42,1.83.35,2.53-.26,1.54-1.36,2.98-1.09,4.09-.39,1.06.67,2.49.51,3.19-.53,2.56-3.8,9.3-5.06,11.24-5.35.35-.05.69-.2.99-.4,6.26-4.34,10.72-.9,12.82,1.52.81.94,2.2,1.1,3.18.34,7.89-6.09,10.35-1.51,11.1,1.33.26.99,1.13,1.69,2.16,1.73,3.63.15,5.25,2.27,5.94,4.53.24.78.9,1.34,1.69,1.55.47.13.92.29,1.34.5s.93.26,1.41.19c2.56-.36,10.36-.99,12.98,4.34.35.72,1.01,1.25,1.81,1.36,8.8,1.12,9.64,6.54,9.37,9.65-.08.92.4,1.85,1.24,2.22,1.69.74,2.8,3.64,3.27,5.16.19.6.61,1.1,1.17,1.37,9.37,4.56,6.44,9.05,4.08,11.2-.88.8-1.04,2.15-.32,3.1,7.46,9.93,2.75,15.23.39,17.05-.47.37-.85.89-.88,1.48Z"/>
    <path class="cls-1" d="M112.31,128.6l-.1.12c-1.54-.85-2.97-1.87-4.35-2.93-.6-.44-1.06-.96-1.81-1.09-.73-.16-1.67-.08-2.46.1-2.22-.76-4.41-1.36-6.43-2.64-1.71-1.27-3.13-2.79-4.51-4.37-1.69-.26-3.33-.63-4.96-1.16.44.59.88,1.17,1.34,1.72.85.78,1.14,1.36,1.51,2.51l-.06.14c-1.36.22-2.19-.9-2.52-2-.36-.83-.65-1.67-.84-2.55-.36-.12-.72-.25-1.08-.39-.14-.06-.28-.13-.42-.2-.09.13-.13.26-.16.4-.09.48.09.93-.34.83-.76-.18-.58-1.04-2.78-.45-.86.23-1.33.38-1.66.53.37.41.76.81,1.14,1.21,2.43,2.39,4.72,5.29,7.8,6.72,2.75.57,6-.51,8.65,1,1.22.49,2.42,1.03,3.59,1.63l-.05.15c-2.51-.23-5.02-1.36-7.49-1.11-.11.01-.23.02-.35.03,1.14.56,2.28,1.11,3.46,1.59.46.18,1.35.36,1.83,1.16.23.37.32.69.44.9.11.2.24.33.41.46,1.54.92,3.06,1.89,4.28,3.3l-.07.13c-1.93-.44-3.78-1.02-5.28-2.31-.49-.43-.72-1.36-.87-1.87-.12-.34-.54-.53-1.17-.85-1.31-.72-2.53-1.56-3.71-2.44-.96.07-2.01.1-3.02-.1-.21-.03-.41-.07-.6-.12.38,3.03-1.38,6.23.89,8.82l-.1.13c-1.53-1.01-2.21-2.95-2.33-4.72-.22-1.59-.05-3.15.81-4.5-.89-.4-1.67-1.04-2.36-1.68-2.37-2.24-4.48-4.68-6.49-7.21-.23.15-.51.33-.99.59-.75.4-1.35.39-1.87.28-.12-.02-.24-.05-.35-.08-.15.08-.31.17-.48.26.13,1.38.24,2.75.43,4.11.03.21.07.62.12,1.03l.24.57c.34.74.65,1.5.95,2.27,1.59,1.95,4.17,3.23,6.29,4.46l-.06.14c-1.94-.74-3.8-1.66-5.54-2.84.52,1.34,1.07,2.67,1.74,3.92,1.17,2.22,2.68,4.34,3.71,6.67.12.35.31.7.19,1.14l-.15-.05c-.06-.64-.63-1.25-1-1.79-1.3-1.69-2.78-3.47-3.94-5.27-.8-1.23-1.43-2.55-1.99-3.9-.02,1-.1,2-.25,3.03-.54,2.35-.38,4.79-.21,7.19.89,1.96,2.73,5.59,2.83,8.38-.14,1.82-.97,3.51-1.95,5.02l-.13-.09c.87-1.51,1.6-3.19,1.63-4.94-.09-1.74-.99-3.35-1.66-4.94-.51-1.09-1.04-2.18-1.59-3.25-.17-1.26-.28-2.52-.33-3.8-.15-2.47.57-4.83.3-7.33-.07-1.56-.34-3.94-.61-6.08-.22-.88-.38-1.77-.49-2.66-.17.42-.35.87-.51,1.26-.27.64-.52,1.13-.72,1.06-.09-.03-.22-.03-.39-.01-.36,1.69-.82,3.34-1.62,4.89l-.11-.11c.5-1.21.61-3.23.79-4.65-.06,0-.12,0-.18.02-.76.08-1.55.03-1.81-.68-.12-.32-.28-.74-.48-1.19-.09-.2-.19-.41-.3-.62-.07.14-.14.27-.22.4-1.91,2.76-2.74,5.75-4.08,8.71.79.85,1.56,1.55,2.44,2.27,2.09,2.04,1.07,5.32.38,7.71l-.16-.04c.14-1.83.29-3.95-.39-5.63-.47-.92-1.43-.98-1.96-1.81-.35-.46-.63-.96-.8-1.5-3.22,6.22-6.82,9.49-4.43,17.36l-.14.06c-.67-1.53-1.1-3.16-1.32-4.85-.47-3.43,1.07-6.77,2.73-9.66,2.56-4.22,3.56-9.42,6.4-13.42.01-.02.02-.03.03-.05-1.59,1.29-3.36,2.36-4.65,3.86l-.13-.08c.61-1.39,1.83-2.49,2.89-3.53.42-.48.82-.97,1.22-1.47-.15-.09-.28-.19-.4-.3-1.09.74-1.83,3.08-2.63,2.51-.88-.61-1.11.79-1.85-.36-.01-.02-.02-.03-.03-.05-.87,1.57-1.6,3.22-2.38,4.85-1.75,3.41-5.4,5.06-8.34,7.22-1.77,2.21-2.2,5.22-2.72,7.94l-.15-.02c.37-2.63.78-5.38,2.17-7.7.3-.55.89-1.01,1.4-1.29,2.58-1.81,5.53-3.59,6.95-6.52.33-.73.65-1.48.98-2.22-.99,1.22-2.08,2.36-3.22,3.47-1.7,1.72-4.01,2.76-6.29,3.52-1.02.41-2.27.3-3.18.95-.83.66-1.6,1.75-2.68,2.18-.79.56-1.08,1.87-1.9,2.79-.84.92-1.97,1.46-3.13,1.67l-.03-.15c1.1-.3,2.14-.93,2.79-1.81.72-.97.8-2.23,1.78-3.11,1.12-.59,1.59-1.51,2.55-2.38.96-.84,2.25-.82,3.38-1.32,1.53-.62,3.03-1.52,4.37-2.48,2.06-1.62,4.06-3.35,6.26-4.85.43-.89.89-1.77,1.42-2.61.22-1.08.48-2.32-.28-3.19-2.03.49-4.1,1.06-5.88,2.06-.38.26-.65.46-.73.76-.13,1.42-1.43,2.37-2.33,3.16-2.11,1.63-4.41,2.96-6.8,4.09l-.08-.14c2.09-1.55,4.22-3.06,6.09-4.85.7-.71,1.49-1.39,1.67-2.27.01-.26.07-.57.19-.79.18-.31.39-.58.62-.81-2.08.31-4.18.58-6.21,1.02-.63.19-1.31.37-1.75.82,0-.03.01.03,0-.17l-.18.51c-1.09.95-2.21,1.83-3.4,2.64-1.19.8-2.38,1.58-3.78,2.11-2.84.85-5.75.27-8.51-.44l.04-.16c1.37.3,2.77.48,4.17.51,4.29.38,7.6-2.67,10.55-5.37.04-.13.1-.2.19-.36.34-.42.78-.69,1.25-.91-.19,0-.38-.02-.57-.04-2.14-.12-5.13.55-7.28.78l-.04-.15c1.17-.41,2.36-.77,3.55-1.12,2.99-.83,6.15-1.3,9.23-.82.6-.1,1.2-.2,1.8-.29-.08-.01-.17-.01-.25-.02-.72-.06-1.34-.24-1.14-.65.12-.24.17-.51.17-.79,0-.26.34-.66.91-1.08,0,0,1.13-1.97,2.33-1.74l3.09-.86h11.11s.75-.01.75-.01c.12,0,.24.01.37.01h1.26s1.09-.01,1.09-.01h0s10.56.01,10.56.01c.13.25.17.46.13.64h.68s1.37.44,1.54,1.24h0c.08.41.21.61.25.82.05.21.01.43-.25.87-.23.39.09.86.36,1.3.32.54.56,1.03-.36,1.25,2.65.8,5.56,1.24,8.32,1.3-.08.05-.15.09-.22.14l.45-.13c-.08,0-.15,0-.23-.01,1.48-.89,3.39-.8,4.81.14,1.19.74,2.51,1.61,3.73,2.29.79.4,1.68,1.07,2.59.89l.09.13c-.47.36-1.07.28-1.57.22-1.51-.23-2.92-.88-4.29-1.51-1.09-.55-2.38-1.38-3.64-1.13-.52.07-.97.28-1.37.5l-.17-.02c-.72-.08-1.42-.17-2.12-.28,1.43,1.31,2.94,2.6,4.57,3.6,1.8.95,4,1.44,6.01,1.92-.06.01-.13.03-.19.05h.38c-.06-.02-.13-.04-.19-.05,1.37-.43,3.01-.57,4.25.39,1.64,1.51,3.08,3.03,4.44,4.84Z"/>
  </g>
</svg>