<?xml version="1.0" encoding="UTF-8"?>
<svg id="Laag_2" data-name="Laag 2" xmlns="http://www.w3.org/2000/svg" viewBox="0 0 132.59 173.99">
  <defs>
    <style>
      .cls-1 {
        fill: #9c9081;
      }

      .cls-1, .cls-2, .cls-3 {
        stroke-width: 0px;
      }

      .cls-2 {
        fill: #5b4511;
      }

      .cls-3 {
        fill: #548013;
      }
    </style>
  </defs>
  <g id="Laag_1-2" data-name="Laag 1">
    <path class="cls-1" d="M107.74,134.09c4.33,1.12,8.78,1.21,13.16.86l-.02-.15c-5.42.13-11.01-.25-15.89-2.69-1.01-.54-2.1-.89-3.22-1.17,1.36-.02,2.71-.14,4.08-.27,2.88-.16,5.84.17,8.74.17v-.15c-2.91-.49-5.76-1.13-8.74-1.28-2.69-.22-5.35-.12-7.92.68-1.32-.32-2.6-.71-3.77-1.37-1.36-.92-2.79-1.95-4.33-2.6-1.86-.88-4.64-1.03-6.68-1.2h-.03c-.71-.25-1.1-.38-1.1-.38-.1-.34-.59-.53-1.3-.64h-12.1v.05c-.47.06-.96.13-1.45.2l-9.78-.25s-.65,1.21-1.39,1.95c-.55.04-1.1.07-1.67.1-3.38.59-6.03,2.7-8.98,4.23-2.94,1.41-6.39,1.05-9.58,1.26v.15c2.62.02,5.25.05,7.88-.34,3.74-.94,6.87-4.06,10.74-4.52.2-.01.41-.01.61-.02-.23.6.08,1.7.25,2.2l-3.68,1.77c-2.64,1.47-6.52,2.05-7.81,5.24-.02.05-.04.09-.05.14-1.37.95-2.88,1.7-4.44,2.21-2.32.56-7.91,2.62-10.25,2.54-1.2.02-2.35-.46-3.6-.39-2.56.16-4.45,2.29-5.9,4.19l.13.09c.78-.9,1.66-1.73,2.63-2.4.97-.68,2.04-1.15,3.16-1.09,1.08,0,2.22.55,3.53.62.72.05,1.44.02,2.14-.08-.5.2-1.01.38-1.54.55-3.39,1.69-5.97,4.63-8.55,7.29l.1.11c2.11-1.6,4.23-3.24,6.46-4.64,2.08-1.25,4.72-1.76,6.12-3.8,2.02-.42,4.08-.7,6.1-1.52,1.16-.48,2.26-1.14,3.22-1.94-.33.85-.66,1.7-.98,2.55-2.66,2.36-4.93,5.06-7.44,7.53-3.34,2.55-6.42,4.47-9.4,7.64l.1.12c2.79-2.21,5.65-4.23,8.8-5.89,2.72-1.8,5.08-4.06,6.99-6.68-.72,2.3-1.49,4.71-2.66,6.75-1.53,2.32-4.12,4.05-5.3,6.67l.14.07c1.55-2.47,4.18-3.83,5.96-6.16,1.68-2.37,2.67-5.45,3.54-7.9.86-1.97,1.68-4,2.49-5.99,1.23-2.58,4.63-3.06,6.96-4.51l3.37-1.76.21-.11-.17.17c-.68.7-1.3,1.47-1.96,2.15-.93.93-2.49,1.91-2.82,3.7-.13.86.02,1.57-.06,2.23-.69,3.43-4.07,5.98-6.45,8.37l.1.12c1.17-.9,2.29-1.85,3.37-2.86,1.57-1.54,3.48-3.19,3.87-5.51.13-.8.04-1.58.17-2.16.3-1.31,1.7-2.11,2.66-2.97.92-.74,1.71-1.73,2.49-2.39,1.65-.19,3.6-.6,4.68.01,1.08.61,1.05,1.69,2.23,2.56.19.14.39.23.61.28-.19.22-.38.44-.57.66-1.35,1.47-2.67,2.96-3.98,4.49-1.43.68-2.8,1.37-4.26,1.99-.27.09-.52.15-.73.16-.15.01-.39.02-.5.07-1.79.8-2.97,2.4-4.21,3.81l.11.11c1.28-1,2.6-2.12,4.06-2.78.16-.07.29-.1.42-.09.41.05.8,0,1.14-.06.55-.09,1.09-.22,1.62-.4-.51.61-1,1.23-1.49,1.85-5.09,6.07-8.2,14.17-15.54,17.93l.06.15c1.88-.78,3.52-1.99,5.04-3.32,2.61-2.3,4.67-5.1,6.7-7.91-.91,2.53-1.62,5.06-2.09,7.78-.27,1.22-.32,2.59-.57,3.77-.89,1.72-2.53,3.46-4.39,4.11v.16c.92-.1,1.7-.56,2.42-1.06,1.43-1.05,3.01-2.34,3.16-4.23.82-3.97,2.77-7.76,2.48-11.92,1.18-1.61,2.38-3.19,3.7-4.66,2.59-3.03,5.47-5.81,8.04-8.92.43-.56.89-1.12,1.34-1.7.47-.05.86-.04,1.07.2.2.22.38.42.58.57-.21,1.31-.53,2.58-.98,3.79-.5,1.48-1.09,2.98-1.78,4.34-.17.48-.34.95-.49,1.43-1.27,1.35-2.35,2.79-3.49,4.25-1.81,2.56-3.28,5.31-4.66,8.08l.14.08c1.61-2.19,3.19-4.45,4.92-6.52.57-.67,1.27-1.28,1.87-1.94-.24.8-.46,1.6-.68,2.4-.92,3.68-1.94,7.55-2.11,11.39-.35.24-.63.41-.93.66-1.02,1.18-2.02,2.47-3.18,3.61l.08.13c1.05-.42,2.02-.96,2.96-1.6.38-.21.77-.49,1.07-.83.09,2.25.53,4.46,1.53,6.59.54,1.25,1.18,2.44,2.02,3.51l.13-.09c-2.01-3.42-2.91-7.43-2.64-11.36.77-6.55,2.96-12.94,4.95-19.2,1.09-2.18,2.17-5.43,2.65-8.31.19-.02.39.01.59.03.18,3.67.19,7.36.57,11.08.31,4.07,1.33,8.06,1.61,12.1-.16,3.12-.68,6.39-.73,9.51l.16-.02c.1-2.57.58-5.5.85-8.1.08-.9.26-1.86.1-2.76-.1-.71-.2-1.43-.3-2.14.32.92.7,1.83,1.14,2.71.94,2.27,3.09,3.84,4.31,5.9,1.21,2.03,2.02,4.34,2.56,6.67,1.03,2.11,3.14,3.54,5.4,4.01l.03-.15c-2.1-.6-4.01-2.06-4.85-4.1-.25-2.02-1.1-4.85-2.23-6.95-1.11-2.2-3.08-3.65-3.89-6-1.57-3.87-2.49-7.95-3.51-12.02,0,0-.01-.01-.01-.02-.18-3.19-.15-6.36-.24-9.52.1.02.2.03.29.03-.03,2.24.04,4.6.22,6.72.27,6.36,5.38,10.92,8.54,15.97,1.7,2.98,6.18,3.03,8.01,5.46.92,1.43,1.12,3.37.42,5.07l.14.08c1.08-1.58,1.23-3.81.31-5.63-1.38-2.68-4.79-3-6.76-4.94-.11-.14-.21-.27-.32-.41.52.22,1.07.37,1.64.43,1.2.08,2.41-.14,3.45.34,1.5.9,2.62,2.43,3.7,3.83l.13-.08c-1.1-2.18-2.52-5.03-5.26-5.31-2.13-.25-3.68-.89-5.46-1.62-.92-1.25-1.85-2.5-2.9-3.7-2.31-2.83-4.41-5.88-4.68-9.6-.28-2.27-.4-4.57-.46-6.87.56-.62.18-2.13,1.61-2.86.02-.01.04-.02.06-.03.29-.15.53-.22.74-.24.79-.1,1.11.48,1.73.57h.01c.52.84,1.1,1.65,1.76,2.39.13.15.26.3.4.44-1.62,3.34-2.89,8.81,1.38,10.33,1.25.44,1.87,1.58,2.2,2.79,0,0,.01.02.01.03-.05.03.16.09.16-.02h-.16s-.01,0,0-.03c.01-.06.11-.05.15-.03-.01-.06-.02-.15-.02-.2-.94-5.51-5.29-1.26-3.31-9.55.11-.88.19-1.78.19-2.7.65.66,1.34,1.28,2.05,1.88h.01c1,.94,2.03,1.95,2.44,2.6.33.67,1.06,1.81.98,2.54-.13,1.08-.26,2.25-.28,3.34,0,.83-.09,1.73.45,2.47,1.04,1.31,2.63,1.29,2.91,3,.16.68.18,1.41.18,2.14l.16.02c.29-1.45.48-3.37-.87-4.38-.58-.51-1.23-.9-1.48-1.37-.38-1.23.11-2.66.23-3.93.11-.7.32-1.58.13-2.31.98.91,1.9,1.88,2.69,2.97,2.46,3.09,2.57,7.32,4.84,10.54,1.07,1.61,2.75,3.21,4.82,3.15l-.02-.15c-1.95-.06-3.47-1.67-4.41-3.25-1.46-2.4-1.85-5.24-2.81-7.84.83.73,1.83,1.29,2.9,1.68,2.35.48,3.96,2.18,6.15,3.15.17.08.42.11.61.17,1.82.94,3.11,2.75,4.51,4.26l.13-.09c-1.08-1.67-2.17-3.4-3.72-4.72-.23-.19-.61-.38-.94-.47-.71-.29-1.33-.86-2.02-1.39-.95-.76-1.88-1.65-3.08-2.13-1.72-.4-3.28-.82-4.97-1.51-.32-.69-.69-1.35-1.16-1.98-1.07-1.55-2.35-2.92-3.71-4.24.57.13,1.16.2,1.79.2,1.56-.39,3.19-.74,4.84-.85,2.48-.23,5.14.02,7.32,1.25.51.72,1.26,1.25,2.13,1.62,1.42,1.24,2.76,2.57,3.92,4,2.58,2.26,5.48,4.36,8.87,5.12l.03-.16c-3.26-.88-6.02-3.08-8.42-5.37-.85-1.13-1.66-2.12-2.49-2.99,2.81.61,6.21.34,8.38.26v-.16c-2.23-.27-4.44-.62-6.57-1.15-1.55-.53-3.01-.86-4.5-1.35h-.01c-3.38-2.42-7.16-2.9-12.94-1.82-.66.27-1.27.11-2.03-.09-.86-.22-1.95-.62-3.06-1.05-1.57-1.44-3.11-2.88-4.4-4.49.35.04.65.01.84-.13.64-.47-.07-3.85,1.62-3.78,1.69.07,3.37.14,3.64-.2.17-.21.51-.48.75-.78.45.34.9.67,1.34,1.01.2.16.39.33.51.47,1.4,2.39,4.3,3.57,6.5,5.03l.12-.11c-1.67-1.6-3.79-3.02-5.09-4.85-.17-.27-.09-.22-.33-.76-.5-.94-1.29-1.58-2.16-2.07,1.01.14,1.99.34,2.94.72,1.97.66,3.68,2.23,5.54,2.9.68.96,1.19,1.88,1.52,2.92.31.67.86,1.01,1.38,1.38,3.09,1.67,6.44,2.71,9.78,3.6l.05-.15c-3.24-1.59-6.88-2.85-9.57-5.3-.12-.1-.13-.16-.16-.19-.06-.03-.07-.1-.1-.16-.26-.61-.62-1.15-1.06-1.6,1.67.4,3.32.67,4.96.98,2.14.39,4.05,1.61,6.15,2.15ZM82.48,138.97l.18.15c-.07-.03-.15-.05-.22-.08l.04-.07Z"/>
    <path class="cls-2" d="M84.27,87.23c-1.13.78-2.29,1.59-3.3,2.3.07.21.06.43-.04.66-.99,2.24-3.77,3.95-4.31,5.93-.54,1.98-1.53,6.56-1.08,9.89.45,3.32,2.85,15.32,5.17,17.9h-23.33s6.66-12.24,6.56-20.06c-.05-4.33-.04-9.48-.03-13.22-.26-.37-.54-.77-.84-1.19-2.67-1.89-6.19-4.59-9.63-7.29-7.78-3.73-16.96-6.82-18.36-7.29.33-.07.66-.13.99-.17,1.32-.17,2.46-.46,3.46-.85,1.82.66,4.15,1.51,6.66,2.52-2.04-1.65-3.65-2.97-4.47-3.65.74-.49,1.36-1.04,1.87-1.59,1.89,1.54,6.48,5.29,11.24,9.04.85.41,1.68.83,2.48,1.26-2.83-3.92-5.83-8.04-8.27-11.37l.16-.11c1.36,1.03,2.72,1.54,4,1.7,4.14,5.65,7.21,9.88,9.48,13.05.45.33.87.66,1.26.99v-.17s.43-.67,1.25-1.36c-1.72-4.41-4.83-10.9-6.33-13.91.56-.34,1.08-.7,1.55-1.08l1-.5c.22.44,4.19,8.41,6.44,14.11.49-.11,1.01-.17,1.58-.14.11.01.21.01.31.03l.46-14.28.77.03c.73.67,1.47,1.12,2.18,1.42l-.47,14.41c.75.83,1.16,1.75,1.33,2.18l6.21-13.23c.97.78,1.89,1.12,2.74,1.18l-6.06,12.93-.23.49c.24-.03.57-.13.99-.27,1.19-.42,3.06-1.25,5.37-2.37,1.01-.69,2.13-1.46,3.36-2.3,1.62-1.11,2.96-2.03,3.54-2.45.69-.5,1.9-1.82,3.86-5.25.84.23,1.65.31,2.42.26l.15.09-.12.23c-.86,1.53-1.64,2.81-2.37,3.84,3.8-2.03,7.81-4.23,11.58-6.34l.24-.13,5.02-2.84,1.2,2.1c-3.75,2.14-18.24,10.35-27.64,14.87Z"/>
    <path class="cls-3" d="M128.97,64.94s-.14,3.2-1.4,3.44c0,0-.63,7.17-7.55,2.31,0,0-2.92,3.88-8.11,1.67l-1.2-2.1-5.02,2.84-.24.13s-.44.16-2.33-1.1c0,0-2.86,3.13-6.91,3.28-.77.05-1.58-.03-2.42-.26-1.81-.48-3.77-1.65-5.77-3.92,0,0-2.07,3.34-5.06,3.14-.85-.06-1.77-.4-2.74-1.18-.83-.66-1.68-1.65-2.56-3.04,0,0-2.08.72-4.51-.32-.71-.3-1.45-.75-2.18-1.42-.68-.61-1.34-1.41-1.96-2.44,0,0-1.55,4.59-5.8.41,0,0-1.06,1.42-2.8,2.78-.47.38-.99.74-1.55,1.08-1.6.96-3.55,1.65-5.66,1.4-1.28-.16-2.64-.67-4-1.7-1.08-.8-2.16-1.92-3.24-3.43,0,0-.34,2.39-2.37,4.61-.51.55-1.13,1.1-1.87,1.59-.63.42-1.36.81-2.19,1.13-1,.39-2.14.68-3.46.85-.33.04-.66.1-.99.17-.39.08-.78.19-1.16.3-.88.26-2.2.48-3.18-.07-.79-.44-1.74-.26-2.46.29-.68.53-1.74.76-3.36.05,0,0-7.23,6.41-7.37-2.94,0,0-3.5,1.17-3.33-1.62,0,0-4.58,4.14-4.76-1.35,0,0-7.15,3.78-5.48-3.59,0,0-3.78.63-1.62-3.51,0,0-4.84-1.35-.67-5.39,0,0-1.03-4.3,1.85-4.79.93-.15,1.68-.85,1.75-1.79.16-2.25,1.14-5.76,5.54-6.18,1.02-.1,1.81-.92,1.88-1.94.13-1.81.51-4.29,1.69-4.67,0,0-4.65-3.98,1.08-5.8,0,0-2.42-4.72,2.83-3.91,0,0,1.05-3.54,2.71-4.34.83-.41,1.42-1.2,1.53-2.12.16-1.43.86-2.88,3.18-2.17,0,0,.94-5.73,6.88-5.39,0,0,.06-2.16,3.1-2.43,0,0,3.1-4.58,7.14-1.48,0,0-.15-6.39,3.81-4.92,1.27.47,2.7.07,3.45-1.06,1.94-2.92,5.77-6.87,9.87-1.03,0,0,4.18-2.3,5.26-.54,0,0,7.68-4.52,10.92,0,0,0,4.24,1.88,3.37,4.31,0,0,5.8.54,5.66,2.97,0,0,15.42-1.89,15.6,3.59,0,0,4.85-1.61,4.85,2.16,0,0,10.7,1.62,9.53,5.93,0,0,6.02,2.25,2.34,5.76,0,0,6.2,4.76,3.41,8.8,0,0,3.87,1.53,2.16,4.32,0,0,5.93,1.53,3.77,5.21,0,0,3.42,1.86,1.26,5.29,0,0,6.13,3.61.86,6.4,0,0,8.14,4.94,0,7.73Z"/>
  </g>
</svg>