<?xml version="1.0" encoding="UTF-8"?>
<svg id="Laag_2" data-name="Laag 2" xmlns="http://www.w3.org/2000/svg" viewBox="0 0 38.55 66.25">
  <defs>
    <style>
      .cls-1 {
        fill: #548313;
      }

      .cls-1, .cls-2, .cls-3 {
        stroke-width: 0px;
      }

      .cls-2 {
        fill: #9c9081;
      }

      .cls-3 {
        fill: #5b4511;
      }
    </style>
  </defs>
  <g id="Laag_1-2" data-name="Laag 1">
    <path class="cls-2" d="M26.14,66.22l-.43.03c-.92-4.95-3.11-9.79-7.87-11.89-2.81-.97-5.73-4.6-5.08-7.89.43-3.22,2.03-5.7,4.24-7.54l.38.19c-.05,4.87-1.97,9.3,2.24,12.35,4.89,3.08,6.95,9.27,6.51,14.76Z"/>
    <path class="cls-3" d="M19.81,27.16c-.35.3-1.03.84-1.35,1.35.97,2.92.08,9.27-.11,10.6l-2.68-.41c.57-3.7.78-8.38.16-9.49-.97-1.65-3-2.27-3.03-2.27l.24-.81-.38.95-.76-7.46c1.76,3.19,1.89,4.54,1.89,4.54l-.08.22c.43.16,1.84.68,3.11,1.84.46-.51.95-.92,1.3-1.19.11-.08.22-.16.27-.22l.89.92,1.22-.92c.84,1.11-.32,2.03-.7,2.35Z"/>
    <g>
      <path class="cls-1" d="M13.25,27.05l1.39-2.29S16.08,12.1.22,12.24c0,0-2.99,11.88,13.03,14.81Z"/>
      <path class="cls-1" d="M18.4,24.81l1.73,2.06S44,17.12,37.4.12c0,0-17.96-3.33-18.99,24.69Z"/>
    </g>
  </g>
</svg>